<?xml version="1.0" encoding="utf-8"?>
<!-- Generator: Adobe Illustrator 17.0.0, SVG Export Plug-In . SVG Version: 6.00 Build 0)  -->
<!DOCTYPE svg PUBLIC "-//W3C//DTD SVG 1.1//EN" "http://www.w3.org/Graphics/SVG/1.1/DTD/svg11.dtd">
<svg version="1.1" id="Layer_1" xmlns="http://www.w3.org/2000/svg" xmlns:xlink="http://www.w3.org/1999/xlink" x="0px" y="0px"
	 width="200px" height="100px" viewBox="0 0 200 100" enable-background="new 0 0 200 100" xml:space="preserve">
<path fill="#FFFFFF" d="M16.606,27.623c-0.063,0.013-0.137-0.091-0.165-0.231l0,0c-0.029-0.141,0-0.265,0.062-0.278l6.037-1.221
	c0.063-0.013,0.137,0.091,0.166,0.232l0,0c0.028,0.14,0,0.265-0.063,0.277L16.606,27.623z"/>
<g>
	<path fill="#FFFFFF" d="M16.159,28.434c-0.007,0.015-0.011,0.028-0.019,0.044C16.159,28.441,16.163,28.432,16.159,28.434z"/>
	<path fill="#FFFFFF" d="M27.301,42.509c0.127-0.514-0.02-1.703-0.026-1.724c0.145-0.051,0.295-0.101,0.429-0.155
		c0.02,0.029,0.648,0.861,1.03,1.111c0.484,0.316,0.962-0.124,0.926-0.624c-0.028-0.395-0.221-0.881-0.427-1.248
		c0.17-0.098,0.343-0.191,0.51-0.296c0.134,0.161,0.752,0.896,0.956,1.076c0.226,0.2,0.505,0.297,0.793,0.15
		c0.269-0.135,0.401-0.431,0.35-0.723c-0.052-0.295-0.54-1.31-0.697-1.519c0.162-0.132,0.328-0.259,0.484-0.397
		c0.218,0.173,0.953,0.888,1.182,0.996c0.232,0.108,0.604-0.01,0.734-0.232c0.274-0.469-0.638-1.647-0.831-1.833
		c0.084-0.092,0.171-0.182,0.253-0.276c0.227,0.172,1.498,0.813,1.929,0.714c0.422-0.096,0.639-0.546,0.454-0.937
		c-0.166-0.353-1.169-1.029-1.355-1.124c0.044-0.065,0.093-0.127,0.136-0.194c0.022,0.01,0.801,0.194,1.163,0.228
		c0.351,0.034,0.774-0.004,1.037-0.261c0.121-0.118,0.222-0.319,0.164-0.493c-0.124-0.375-0.37-0.553-0.684-0.768
		c-0.216-0.148-0.492-0.3-0.756-0.404c0.073-0.16,0.158-0.314,0.224-0.476c0.049,0.016,1.574,0.171,2.079-0.25
		c0.239-0.199,0.285-0.638,0.049-0.861c-0.39-0.368-1.012-0.585-1.572-0.662c0.033-0.15,0.076-0.302,0.101-0.452
		c0.833,0.05,2.031-0.203,1.939-1.059c-0.042-0.386-0.46-0.611-0.784-0.722c-0.295-0.101-0.67-0.181-1.014-0.209
		c-0.006-0.206-0.018-0.414-0.036-0.623c0.034-0.006,1.62-0.331,1.989-0.895c0.182-0.279,0.09-0.613-0.163-0.807
		c-0.454-0.347-2.047-0.263-2.141-0.239c-0.051-0.223-0.101-0.446-0.162-0.677c0.037-0.013,1.504-0.433,1.945-1.024
		c0.312-0.419-0.052-0.898-0.481-0.978c-0.595-0.11-1.362,0.165-1.937,0.411c-0.083-0.252-0.168-0.507-0.259-0.769
		c0.072-0.013,1.951-0.937,1.788-1.826c-0.053-0.288-0.289-0.441-0.558-0.49c-0.361-0.064-1.784,0.85-1.805,0.866
		c-0.119-0.258-0.241-0.511-0.373-0.755c0.53-0.421,1.106-0.87,1.214-1.568c0.063-0.402-0.302-0.708-0.659-0.757
		c-0.587-0.083-1.129,0.317-1.613,0.686c-0.213-0.279-0.437-0.542-0.667-0.796c0.214-0.236,0.389-0.475,0.542-0.759
		c0.155-0.29,0.369-0.655,0.263-0.996c-0.075-0.243-0.247-0.442-0.519-0.456c-0.604-0.031-1.089,0.635-1.494,1.007
		c-0.006,0.006-0.367-0.255-0.543-0.389c0.359-0.403,0.709-0.937,0.735-1.441c0.032-0.606-0.553-0.902-1.068-0.709
		c-0.473,0.178-0.827,0.755-1.104,1.187c-0.248-0.143-0.499-0.276-0.75-0.403c0.03-0.054,0.371-1.337,0.144-1.875
		c-0.146-0.347-0.558-0.404-0.867-0.284c-0.524,0.202-1.014,1.409-1.019,1.429c-0.404-0.133-0.812-0.232-1.22-0.316
		c0.232-0.508,0.259-1.217,0.102-1.595c-0.13-0.313-0.526-0.39-0.807-0.265c-0.445,0.198-0.837,1.02-0.8,1.658
		c-0.296-0.018-0.591-0.019-0.885-0.012c-0.001-0.21-0.182-1.275-0.313-1.573c-0.267-0.609-1.334-0.582-1.489,0.104
		c-0.111,0.491-0.172,1.138-0.018,1.672c-0.354,0.072-0.702,0.168-1.045,0.277c-0.058-0.138-0.554-1.045-0.794-1.303
		c-0.395-0.423-1.192-0.206-1.211,0.414c-0.011,0.388,0.454,1.368,0.534,1.493c-0.323,0.164-0.637,0.349-0.943,0.548
		c-0.254-0.211-0.525-0.404-0.782-0.611c-0.281-0.227-0.626-0.5-0.999-0.507c-0.335-0.006-0.659,0.176-0.765,0.508
		c-0.233,0.73,0.359,1.41,0.956,1.896c-0.272,0.272-0.525,0.568-0.769,0.876c-0.203-0.188-1.224-1.007-1.587-1.157
		c-0.464-0.191-1.013,0.121-1.168,0.573c-0.17,0.496,0.111,0.978,0.573,1.168c0.106,0.044,1.113,0.58,1.346,0.668
		c-0.228,0.42-0.403,0.854-0.543,1.292c-0.211-0.118-1.213-0.54-1.5-0.624c-0.514-0.149-1.066,0.088-1.245,0.611
		c-0.165,0.48,0.095,1.107,0.611,1.246c0.539,0.145,1.227,0.394,1.818,0.339c-0.025,0.288-0.027,0.574-0.016,0.859
		c-0.058-0.019-1.194-0.138-1.644-0.035c-0.447,0.103-0.75,0.532-0.657,0.991c0.084,0.417,0.551,0.79,0.991,0.657
		c0.355-0.108,1.347-0.166,1.498-0.207c0.068,0.279,0.154,0.553,0.257,0.82c-0.451,0.06-0.917,0.242-1.286,0.382
		c-0.465,0.176-0.608,0.819-0.402,1.226c0.234,0.463,0.771,0.6,1.226,0.402c0.398-0.173,0.873-0.304,1.241-0.56
		c0.102,0.143,0.211,0.282,0.326,0.416c-0.402,0.132-0.767,0.41-1.047,0.73c-0.356,0.406-0.473,0.961-0.079,1.402
		c0.434,0.487,1.201,0.41,1.568-0.112c0.019-0.029,0.682-0.949,0.698-0.984c0.16,0.114,0.329,0.22,0.503,0.319
		c-0.311,0.369-0.511,0.911-0.634,1.335c-0.124,0.427,0.073,0.888,0.508,1.037c0.404,0.139,0.915-0.081,1.036-0.509
		c0.118-0.415,0.359-0.854,0.41-1.297c0.097,0.03,0.348,0.101,0.376,0.108c-0.238,0.541-0.225,1.276-0.023,1.746
		c0.31,0.721,1.417,0.595,1.646-0.115c0.092-0.286,0.087-1.26,0.05-1.464c0.16-0.009,0.316-0.028,0.469-0.052
		c0.202,0.543,0.703,0.991,1.038,1.441c0.279,0.375,0.886,0.36,1.211,0.069c0.362-0.324,0.361-0.847,0.069-1.212
		c-0.231-0.288-0.485-0.597-0.769-0.865c0.323-0.201,0.606-0.45,0.847-0.732c0.035,0.018,0.801,0.422,1.157,0.316
		c0.359-0.107,0.581-0.47,0.403-0.831c-0.139-0.281-0.808-0.681-0.872-0.722c0.163-0.515,0.221-1.088,0.151-1.703
		c0.485,0.18,0.92,0.413,1.329,0.671c-0.258,0.117-0.487,0.294-0.666,0.533c-0.507,0.679,0.528,1.585,1.123,0.974
		c0.221-0.226,0.373-0.5,0.502-0.785c0.261,0.239,0.507,0.491,0.724,0.765c-0.151,0.053-1.172,0.664-1.069,1.172
		c0.118,0.585,0.734,0.828,1.253,0.608c0.211-0.09,0.467-0.195,0.693-0.334c0.148,0.335,0.263,0.687,0.359,1.048
		c-0.303-0.005-0.615,0.029-0.897,0.027c-0.437-0.004-0.824,0.289-0.856,0.745c-0.027,0.392,0.308,0.884,0.745,0.856
		c0.383-0.025,0.854-0.06,1.247-0.221c0.035,0.456,0.031,0.925-0.007,1.401c-0.425-0.298-1.023-0.448-1.457-0.407
		c-0.666,0.063-0.729,0.985-0.257,1.315c0.299,0.209,1.367,0.283,1.542,0.262c-0.033,0.159-0.235,0.926-0.314,1.137
		c-0.241-0.306-0.547-0.559-0.788-0.781c-0.364-0.334-0.885-0.428-1.281-0.073c-0.341,0.305-0.437,0.947-0.073,1.282
		c0.416,0.382,0.869,0.763,1.4,0.971c-0.325,0.455-0.705,0.839-1.112,1.174c-0.103-0.436-0.402-0.807-0.64-1.178
		c-0.247-0.385-0.689-0.594-1.13-0.371c-0.377,0.191-0.618,0.744-0.37,1.13c0.251,0.391,0.567,0.907,0.962,1.2
		c-0.517,0.275-1.052,0.488-1.575,0.646c0.002-0.046-0.17-1.314-0.506-1.787c-0.253-0.356-0.931-0.216-1.027,0.208
		c-0.116,0.512,0.01,1.749,0.043,1.844c-0.354,0.023-0.754,0.032-1.183,0.03c0.011-0.16-0.094-1.277-0.369-1.569
		c-0.224-0.239-0.586-0.261-0.836-0.047c-0.308,0.263-0.497,1.386-0.515,1.565c-0.234-0.012-0.474-0.027-0.714-0.041
		c0.003-0.052-0.029-0.922-0.213-1.254c-0.223-0.402-0.849-0.497-1.107-0.065c-0.172,0.288-0.304,1.117-0.311,1.206
		c-0.225-0.017-0.449-0.035-0.672-0.054c0.032-0.441-0.022-0.924-0.306-1.252c-0.186-0.216-0.588-0.268-0.795-0.046
		c-0.32,0.345-0.317,0.746-0.388,1.172c-0.336-0.029-0.658-0.057-0.972-0.084c0.002-0.408-0.12-0.784-0.376-1.146
		c-0.387-0.549-1.306-0.28-1.489,0.301c-0.063,0.2-0.134,0.689-0.149,0.688c-1.246-0.074-1.349,1.757-0.132,1.915
		c2.464,0.74,5.147,1.105,7.687,1.192c0.101,0.417,0.311,0.855,0.673,1.08c0.317,0.198,0.798,0.146,0.997-0.202
		c0.154-0.267,0.194-0.564,0.177-0.862c0.526-0.011,1.044-0.029,1.544-0.064c0.075,0.344,0.162,0.686,0.297,1.008
		c0.297,0.707,1.484,0.467,1.483-0.3c-0.001-0.292-0.039-0.584-0.087-0.874c0.597-0.078,1.166-0.172,1.691-0.284
		c0.037,0.185,0.447,1.185,0.651,1.478C26.523,43.085,27.198,42.927,27.301,42.509z M19.321,17.579
		c0.779-0.544,1.605-0.934,2.383-1.119c1.115-0.265,2.256-0.324,3.464-0.064L19.321,17.579z M17.293,19.528
		c0.342-0.454,0.731-0.866,1.144-1.24l7.807-1.579c0.487,0.179,0.984,0.408,1.498,0.705L17.293,19.528z M32.307,22.643l-5.928,1.199
		c-0.512-0.407-1.034-0.701-1.542-0.855l6.885-1.393C31.933,21.936,32.129,22.286,32.307,22.643z M16.873,20.143l11.473-2.321
		c0.31,0.248,0.604,0.508,0.891,0.775l-12.912,2.613C16.478,20.84,16.662,20.483,16.873,20.143z M16.116,21.781l13.577-2.747
		c0.258,0.26,0.504,0.53,0.74,0.805l-14.538,2.941C15.943,22.441,16.014,22.107,16.116,21.781z M15.845,23.321l14.964-3.028
		c0.214,0.271,0.416,0.549,0.608,0.832L15.876,24.27C15.837,23.95,15.831,23.634,15.845,23.321z M16.007,24.986
		c-0.017-0.069-0.025-0.136-0.04-0.205l6.649-1.345c-0.255,0.235-0.488,0.541-0.69,0.936c0.047,0.12,0.083,0.236,0.112,0.348
		l-5.575,1.128C16.25,25.597,16.089,25.31,16.007,24.986z M16.93,26.285l5.183-1.049C22.167,27.351,18.688,27.585,16.93,26.285z
		 M26.873,24.273l5.661-1.145c0.144,0.322,0.276,0.649,0.393,0.982l-5.231,1.058C27.431,24.84,27.155,24.54,26.873,24.273z
		 M28.048,25.627l5.039-1.02c0.136,0.448,0.247,0.902,0.33,1.366l-4.563,0.923C28.605,26.446,28.334,26.021,28.048,25.627z
		 M29.106,27.376l4.394-0.889c0.048,0.361,0.078,0.726,0.094,1.095l-4.033,0.816C29.423,28.048,29.27,27.706,29.106,27.376z
		 M30.006,29.74c-0.077-0.287-0.166-0.57-0.263-0.849l3.864-0.782c-0.001,0.301-0.01,0.603-0.033,0.909L30.006,29.74z
		 M30.317,31.322c-0.044-0.362-0.108-0.721-0.188-1.077l3.402-0.688c-0.046,0.382-0.113,0.767-0.196,1.154L30.317,31.322z
		 M30.394,32.579c0-0.246-0.006-0.492-0.023-0.738l2.825-0.572c-0.068,0.262-0.142,0.525-0.224,0.788L30.394,32.579z M30.29,33.927
		c0.041-0.27,0.074-0.542,0.09-0.814l2.396-0.485c-0.021,0.058-0.261,0.646-0.378,0.872L30.29,33.927z M29.873,35.443
		c0.116-0.307,0.222-0.626,0.314-0.965l1.861-0.377c-0.247,0.382-0.528,0.738-0.837,1.071L29.873,35.443z M29.634,36.022
		l0.881-0.178c-0.398,0.347-0.823,0.667-1.273,0.955C29.383,36.553,29.511,36.292,29.634,36.022z"/>
</g>
<path fill="#FFFFFF" d="M52.898,61.699c-0.001,0.03-0.216,0.045-0.478,0.033l0,0c-0.262-0.012-0.474-0.045-0.473-0.075l0.15-3.44
	c0.001-0.03,0.216-0.046,0.477-0.034l0,0c0.262,0.012,0.475,0.046,0.473,0.075L52.898,61.699z"/>
<path fill="#FFFFFF" d="M49.544,61.262c-0.004,0.03-0.219,0.029-0.479-0.003l0,0c-0.26-0.032-0.47-0.081-0.466-0.111l0.41-3.419
	c0.004-0.029,0.219-0.029,0.479,0.002l0,0c0.26,0.031,0.47,0.082,0.466,0.111L49.544,61.262z"/>
<path fill="#FFFFFF" d="M47.302,61.177c-0.004,0.034-0.22,0.036-0.48,0.004l0,0c-0.26-0.032-0.469-0.084-0.466-0.118l0.464-3.867
	c0.004-0.033,0.22-0.036,0.48-0.005l0,0c0.261,0.032,0.47,0.085,0.466,0.118L47.302,61.177z"/>
<path fill="#FFFFFF" d="M44.293,60.575c-0.009,0.033-0.222,0.004-0.475-0.064l0,0c-0.253-0.069-0.452-0.15-0.444-0.183l1.012-3.761
	c0.009-0.032,0.222-0.004,0.475,0.064l0,0c0.253,0.069,0.453,0.152,0.444,0.184L44.293,60.575z"/>
<path fill="#FFFFFF" d="M41.886,59.684c-0.009,0.033-0.222,0.004-0.475-0.064l0,0c-0.253-0.069-0.453-0.15-0.444-0.183l1.012-3.761
	c0.009-0.032,0.222-0.004,0.475,0.064l0,0c0.253,0.069,0.453,0.151,0.444,0.184L41.886,59.684z"/>
<path fill="#FFFFFF" d="M39.785,59.259c-0.009,0.033-0.222,0.004-0.475-0.064l0,0c-0.253-0.069-0.452-0.15-0.444-0.183l1.011-3.761
	c0.009-0.032,0.222-0.004,0.475,0.064l0,0c0.254,0.069,0.453,0.151,0.444,0.184L39.785,59.259z"/>
<path fill="#FFFFFF" d="M37.434,58.329c-0.013,0.032-0.221-0.024-0.464-0.123l0,0c-0.243-0.099-0.431-0.204-0.418-0.236l1.467-3.608
	c0.013-0.031,0.221,0.024,0.464,0.122l0,0c0.243,0.099,0.431,0.206,0.418,0.237L37.434,58.329z"/>
<path fill="#FFFFFF" d="M35.047,57.274c-0.013,0.032-0.221-0.024-0.464-0.122l0,0c-0.243-0.099-0.431-0.204-0.418-0.236l1.467-3.608
	c0.013-0.031,0.221,0.024,0.463,0.122l0,0c0.243,0.099,0.431,0.206,0.418,0.237L35.047,57.274z"/>
<path fill="#FFFFFF" d="M32.562,55.772c-0.01,0.025-0.216-0.036-0.459-0.135l0,0c-0.243-0.099-0.433-0.199-0.423-0.224l1.154-2.84
	c0.01-0.024,0.216,0.036,0.459,0.134l0,0c0.243,0.099,0.433,0.2,0.423,0.225L32.562,55.772z"/>
<path fill="#FFFFFF" d="M30.227,54.972c-0.01,0.025-0.216-0.036-0.459-0.135l0,0c-0.243-0.099-0.433-0.199-0.423-0.224l1.154-2.84
	c0.01-0.024,0.216,0.036,0.459,0.134l0,0c0.243,0.099,0.433,0.2,0.423,0.225L30.227,54.972z"/>
<path fill="#FFFFFF" d="M27.849,53.702c-0.01,0.025-0.216-0.036-0.459-0.135l0,0c-0.243-0.099-0.433-0.199-0.423-0.224l1.154-2.839
	c0.01-0.025,0.217,0.036,0.459,0.134l0,0c0.243,0.099,0.433,0.2,0.423,0.225L27.849,53.702z"/>
<path fill="#FFFFFF" d="M26.094,52.89c-0.01,0.025-0.216-0.036-0.459-0.135l0,0c-0.243-0.1-0.433-0.199-0.423-0.224l1.154-2.84
	c0.01-0.024,0.216,0.036,0.459,0.134l0,0c0.243,0.099,0.433,0.2,0.423,0.225L26.094,52.89z"/>
<path fill="#FFFFFF" d="M24.074,51.813c-0.01,0.025-0.216-0.036-0.459-0.135l0,0c-0.243-0.099-0.433-0.199-0.423-0.224l1.154-2.84
	c0.01-0.024,0.216,0.036,0.459,0.134l0,0c0.243,0.099,0.433,0.2,0.423,0.225L24.074,51.813z"/>
<path fill="#FFFFFF" d="M21.91,50.975c-0.012,0.03-0.22-0.026-0.462-0.126l0,0c-0.243-0.099-0.431-0.203-0.419-0.233l1.384-3.406
	c0.012-0.029,0.22,0.027,0.463,0.125l0,0c0.243,0.099,0.431,0.204,0.419,0.233L21.91,50.975z"/>
<path fill="#FFFFFF" d="M19.808,49.755c-0.012,0.03-0.219-0.026-0.462-0.126l0,0c-0.243-0.099-0.431-0.202-0.419-0.233l1.384-3.406
	c0.013-0.029,0.22,0.027,0.463,0.125l0,0c0.243,0.099,0.431,0.204,0.419,0.234L19.808,49.755z"/>
<path fill="#FFFFFF" d="M17.399,48.333c-0.012,0.03-0.219-0.026-0.462-0.126l0,0c-0.243-0.099-0.431-0.202-0.419-0.233l1.384-3.406
	c0.012-0.029,0.22,0.027,0.463,0.125l0,0c0.243,0.099,0.431,0.204,0.419,0.233L17.399,48.333z"/>
<path fill="#FFFFFF" d="M15.589,47.008c-0.012,0.03-0.219-0.026-0.462-0.126l0,0c-0.243-0.099-0.431-0.203-0.419-0.233l1.384-3.406
	c0.012-0.029,0.22,0.027,0.463,0.125l0,0c0.243,0.099,0.431,0.204,0.419,0.233L15.589,47.008z"/>
<path fill="#FFFFFF" d="M13.118,45.28c-0.012,0.03-0.219-0.027-0.462-0.126l0,0c-0.243-0.099-0.431-0.203-0.419-0.233l1.384-3.406
	c0.012-0.029,0.22,0.027,0.463,0.125l0,0c0.243,0.099,0.431,0.204,0.419,0.233L13.118,45.28z"/>
<path fill="#FFFFFF" d="M55.354,62.05c-0.001,0.03-0.216,0.045-0.478,0.033l0,0c-0.262-0.012-0.474-0.045-0.473-0.075l0.151-3.44
	c0.001-0.03,0.215-0.045,0.477-0.034l0,0c0.262,0.012,0.475,0.046,0.473,0.075L55.354,62.05z"/>
<path fill="#FFFFFF" d="M57.598,62.392c-0.001,0.03-0.216,0.045-0.478,0.033l0,0c-0.262-0.012-0.474-0.045-0.473-0.075l0.151-3.44
	c0.001-0.03,0.216-0.045,0.477-0.034l0,0c0.262,0.012,0.475,0.046,0.473,0.075L57.598,62.392z"/>
<path fill="#FFFFFF" d="M58.012,57.611c5.644-1.556,12.445-4.285,15.191-9.862c1.183-1.814,1.8-4.863,1.431-7.963
	c0.008-0.001,0.017-0.003,0.025-0.004c-0.135,0.019,0.513-0.182,0.612-0.221c0.264-0.107,0.526-0.337,0.594-0.624
	c0.11-0.469-0.073-0.846-0.512-1.043c-0.186-0.084-0.941-0.029-1.07-0.01c-0.061-0.236-0.127-0.471-0.201-0.705
	c0.489-0.197,0.976-0.469,1.199-0.958c0.09-0.198-0.018-0.489-0.202-0.594c-0.477-0.273-1.117-0.233-1.654-0.103
	c-0.178-0.369-0.367-0.732-0.584-1.082c0.121-0.095,1.06-0.735,1.125-1.184c0.027-0.188-0.091-0.423-0.255-0.517
	c-0.546-0.313-1.237,0.035-1.778,0.434c-0.265-0.313-0.548-0.615-0.855-0.9c0.05-0.05,1.037-1.068,0.926-1.719
	c-0.053-0.313-0.346-0.563-0.66-0.58c-0.535-0.029-1.583,0.996-1.762,1.152c-0.292-0.183-0.601-0.351-0.921-0.509
	c0.053-0.167,0.337-1.289,0.17-1.676c-0.074-0.173-0.296-0.329-0.488-0.324c-0.729,0.021-1.122,0.72-1.448,1.309
	c-0.287-0.086-0.592-0.156-0.896-0.225c0.052-0.52,0.052-1.069-0.031-1.565c-0.065-0.388-0.542-0.506-0.823-0.274
	c-0.453,0.375-0.678,0.975-0.806,1.567c-0.283-0.009-0.566,0.003-0.848,0.019c-0.037-0.429-0.215-0.874-0.348-1.256
	c-0.157-0.453-0.532-1.016-1.088-0.768c-0.466,0.209-0.44,0.783-0.426,1.21c0.012,0.351,0.02,0.715,0.081,1.063
	c-0.275,0.06-0.55,0.13-0.823,0.209c-0.112-0.281-0.736-1.661-1.144-1.944c-0.398-0.275-0.956-0.066-1.114,0.379
	c-0.239,0.677,0.145,1.508,0.514,2.171c-0.463,0.189-0.923,0.398-1.381,0.622c-0.088-0.288-0.22-0.557-0.371-0.844
	c-0.234-0.446-0.416-0.915-0.92-1.104c-0.285-0.108-0.642,0.015-0.803,0.273c-0.303,0.484-0.142,1.005,0.069,1.495
	c0.145,0.338,0.319,0.674,0.557,0.954c-0.388,0.217-0.773,0.443-1.155,0.673c-0.146-0.261-0.311-0.507-0.474-0.759
	c-0.199-0.308-0.342-0.682-0.675-0.87c-0.365-0.206-0.805-0.079-0.959,0.326c-0.27,0.711,0.736,2.136,0.742,2.146
	c-0.373,0.235-0.74,0.472-1.106,0.707c-0.113-0.196-0.815-1.282-1.166-1.496c-0.479-0.291-1.116-0.005-1.16,0.572
	c-0.052,0.673,0.419,1.33,0.772,1.92c-0.354,0.225-0.703,0.443-1.05,0.654c-0.042-0.089-0.556-1.106-0.882-1.408
	c-0.508-0.47-1.255-0.231-1.36,0.465c-0.074,0.496,0.616,1.681,0.724,1.829c-0.324,0.181-0.647,0.362-0.969,0.541
	c-0.114-0.191-0.965-1.363-1.45-1.372c-0.234-0.004-0.427,0.12-0.512,0.34c-0.154,0.401,0.393,1.614,0.514,1.831
	c-0.28,0.153-0.559,0.304-0.838,0.455c-0.273-0.493-0.668-0.956-1.049-1.247c-0.46-0.353-1.042,0.144-0.962,0.647
	c0.057,0.357,0.518,1.238,0.58,1.358c-0.299,0.156-0.599,0.304-0.898,0.455c-0.002-0.003-0.003-0.006-0.006-0.009
	c-0.189-0.284-0.452-0.724-0.544-0.895c-0.161-0.3-0.493-0.472-0.832-0.404c-0.299,0.061-0.631,0.363-0.61,0.695
	c0.028,0.449,0.456,1.29,0.49,1.35c-0.436,0.208-0.874,0.41-1.313,0.608c-0.009-0.015-0.388-0.681-0.63-0.973
	c-0.165-0.2-0.455-0.286-0.704-0.234c-0.528,0.21-0.648,0.625-0.583,0.879c0.076,0.296,0.176,0.667,0.322,1.014
	c-0.374,0.153-0.751,0.301-1.129,0.444c-0.14-0.495-0.378-0.998-0.668-1.353c-0.343-0.42-1.04-0.148-1.074,0.368
	c-0.032,0.479,0.068,1.025,0.213,1.527c-0.322,0.108-0.649,0.204-0.975,0.304c-0.003-0.044-0.234-1.199-0.666-1.431
	c-0.269-0.144-0.7-0.149-0.861,0.174c-0.189,0.381-0.166,1.52-0.176,1.732c-0.321,0.081-0.649,0.147-0.974,0.219
	c-0.004-0.029-0.24-0.824-0.572-1.096c-0.208-0.171-0.561-0.074-0.696,0.141c-0.17,0.273-0.305,1.133-0.316,1.267
	c-0.34,0.059-0.679,0.12-1.024,0.169c-0.06-0.598-0.293-1.283-0.892-1.129c-0.535,0.138-0.712,0.797-0.722,1.368
	c-0.372,0.057-0.735,0.107-1.097,0.152c0.001-0.004,0.001-0.009,0.002-0.013c0.066-0.391-0.069-0.734-0.291-1.043
	c-0.286-0.398-0.871-0.249-1.125,0.08c-0.174,0.225-0.389,1.063-0.396,1.099c-0.229,0-0.465-0.012-0.704-0.026
	c0.019-0.301,0.043-0.591-0.099-0.878c-0.153-0.309-0.526-0.413-0.828-0.272c-0.381,0.177-0.551,0.555-0.641,0.941
	c-0.465-0.092-0.949-0.203-1.479-0.366C17.879,43.015,6.947,35.388,5.2,34.202c-0.757-0.513,3.81,4.557,4.476,5.221
	c1.798,1.794,12.962,8.634,15.744,10.203c3.418,1.927,6.856,3.795,10.459,5.353C39.157,56.396,49.791,59.635,58.012,57.611z
	 M57.966,53.753l-1.053-2.511c0.4-0.123,0.794-0.253,1.178-0.393l1.458,2.415C59.022,53.443,58.494,53.608,57.966,53.753z
	 M60.052,53.09l-1.466-2.43c0.312-0.125,0.631-0.266,0.953-0.42l1.762,2.353C60.887,52.77,60.47,52.937,60.052,53.09z
	 M61.792,52.379l-1.78-2.376c0.38-0.196,0.76-0.409,1.136-0.638l1.881,2.389C62.621,51.977,62.209,52.188,61.792,52.379z
	 M63.49,51.497l-1.898-2.41c0.267-0.173,0.53-0.355,0.787-0.543l2.344,2.18C64.318,51.001,63.907,51.256,63.49,51.497z
	 M42.175,46.969c-0.334,0.104-0.667,0.204-0.995,0.302l-1.697-2.685c0.321-0.117,0.64-0.237,0.959-0.36L42.175,46.969z
	 M40.936,44.033c0.468-0.187,0.935-0.377,1.397-0.575l1.809,2.862c-0.477,0.167-0.964,0.329-1.454,0.486L40.936,44.033z
	 M40.659,47.423c-0.363,0.105-0.717,0.205-1.06,0.3l-1.989-2.512c0.364-0.11,1.276-0.41,1.371-0.443L40.659,47.423z M39.053,47.873
	c-0.205,0.055-0.404,0.109-0.597,0.16l-2.62-2.344c0.416-0.098,0.831-0.198,1.239-0.313L39.053,47.873z M35.214,45.833l2.638,2.359
	c-0.345,0.09-0.661,0.17-0.935,0.239l-2.689-2.406C34.558,45.965,34.888,45.903,35.214,45.833z M51.224,44.454
	c6.954-5.374,10.922-5.288,12.291-3.643c-0.467,0.346-1.884,1.625-2.196,1.868c-0.417-0.611-1.173-0.947-1.944-0.791
	c-1.027,0.208-1.691,1.209-1.483,2.236c0.044,0.219,0.131,0.417,0.24,0.598c-0.609,0.281-1.217,0.612-1.782,0.982
	c-0.33-0.416-0.87-0.641-1.426-0.529c-0.788,0.159-1.419,1.175-1.069,1.936c-0.673,0.203-1.35,0.46-1.978,0.749
	c-0.202-0.415-0.663-0.661-1.137-0.565c-0.563,0.114-1.011,0.934-0.761,1.392c-0.918,0.116-1.846,0.228-2.747,0.4
	c-0.096-0.462-0.547-0.76-1.009-0.667c-0.362,0.073-0.622,0.366-0.675,0.711c-1.014-0.018-2.036,0.059-3.052,0.021
	c-0.847-0.032-1.711-0.144-2.562-0.127c-0.139-0.045-0.276-0.093-0.415-0.137c1.374-0.3,2.728-0.798,4.084-1.219
	C46.304,46.828,48.716,46.066,51.224,44.454z M59.737,43.087c0.373-0.075,0.736,0.166,0.811,0.539
	c0.075,0.373-0.165,0.736-0.538,0.811c-0.373,0.075-0.736-0.166-0.811-0.538C59.124,43.526,59.365,43.163,59.737,43.087z
	 M50.626,48.431c-0.046-0.226,0.1-0.445,0.325-0.49c0.225-0.046,0.444,0.1,0.49,0.326c0.046,0.225-0.1,0.444-0.325,0.49
	C50.891,48.802,50.671,48.656,50.626,48.431z M46.531,49.551c-0.183,0.037-0.361-0.081-0.398-0.264
	c-0.037-0.183,0.081-0.361,0.264-0.398c0.183-0.037,0.361,0.081,0.398,0.265C46.832,49.336,46.714,49.514,46.531,49.551z
	 M54.745,46.776c-0.063-0.31,0.137-0.612,0.447-0.674c0.309-0.063,0.611,0.138,0.674,0.447c0.063,0.309-0.138,0.611-0.447,0.674
	S54.807,47.085,54.745,46.776z M45.553,49.432c0.094,0.464,0.546,0.765,1.011,0.671c0.345-0.07,0.598-0.338,0.668-0.662
	c0.943,0.008,1.911-0.298,2.834-0.583c0.222,0.36,0.649,0.564,1.088,0.475c0.447-0.09,0.764-0.457,0.82-0.885
	c0.719-0.229,1.49-0.506,2.141-0.902c0.332,0.386,0.853,0.591,1.388,0.483c0.788-0.159,1.297-0.928,1.137-1.715
	c0,0-0.001-0.002-0.001-0.002c0.616-0.364,1.214-0.785,1.797-1.2c0.434,0.418,1.058,0.624,1.692,0.496
	c1.027-0.208,1.691-1.209,1.483-2.236c-0.005-0.027,1.753-1.633,2.209-2.106c1.627,2.788-0.123,3.91-1.699,5.282
	c-2.267,1.974-5.455,3.155-8.33,3.841c-3.319,0.792-6.776,0.574-10.073-0.181c-0.708-0.162-1.398-0.38-2.083-0.61
	C41.914,49.603,45.55,49.417,45.553,49.432z M65.154,50.413l-2.354-2.188c0.362-0.284,0.706-0.582,1.028-0.891l2.593,2.077
	C66.009,49.772,65.584,50.1,65.154,50.413z M66.809,49.054l-2.609-2.09c0.243-0.256,0.471-0.519,0.676-0.788l3.027,1.782
	C67.548,48.345,67.182,48.708,66.809,49.054z M68.252,47.557l-3.074-1.809c0.171-0.257,0.32-0.519,0.447-0.785l3.42,1.386
	C68.814,46.787,68.548,47.192,68.252,47.557z M69.272,45.878l-3.445-1.396c0.114-0.318,0.191-0.639,0.229-0.963l3.808,0.607
	C69.719,44.738,69.52,45.327,69.272,45.878z M69.975,43.615l-3.894-0.621c-0.007-0.291-0.046-0.582-0.127-0.874l4.201-0.267
	C70.141,42.445,70.083,43.037,69.975,43.615z M70.151,41.33l-4.385,0.279c-0.09-0.206-0.361-0.686-0.377-0.723l4.546-1.382
	C70.065,40.098,70.134,40.711,70.151,41.33z M69.809,38.998l-4.658,1.416c-0.046-0.08-0.091-0.162-0.139-0.24l4.06-2.933
	C69.388,37.783,69.634,38.374,69.809,38.998z M68.789,36.802l-4.074,2.943c-0.124-0.155-0.257-0.296-0.396-0.427l3.167-3.863
	C67.998,35.833,68.431,36.287,68.789,36.802z M67.052,35.165l-3.133,3.821c-0.118-0.086-0.241-0.163-0.367-0.235l1.379-4.339
	C65.736,34.541,66.443,34.8,67.052,35.165z M64.404,34.345l-1.326,4.173c-0.384-0.16-0.793-0.266-1.218-0.329l0.14-3.712
	C62.881,34.318,63.677,34.284,64.404,34.345z M61.475,34.595l-0.133,3.54c-0.357-0.022-0.722-0.015-1.092,0.016l-0.669-2.987
	C60.247,34.918,60.877,34.73,61.475,34.595z M59.088,35.353l0.641,2.857c-0.38,0.055-0.762,0.132-1.142,0.23l-0.877-2.478
	C58.186,35.731,58.643,35.533,59.088,35.353z M57.234,36.182l0.85,2.399c-0.454,0.138-0.9,0.303-1.334,0.485l-0.807-2.28
	C56.372,36.581,56.802,36.38,57.234,36.182z M53.85,37.809c0.538-0.269,1.078-0.535,1.62-0.797l0.802,2.266
	c-0.447,0.206-0.882,0.435-1.31,0.678L53.85,37.809z M53.384,38.043l1.127,2.175c-0.456,0.273-0.907,0.556-1.35,0.855l-1.197-2.31
	C52.437,38.521,52.91,38.281,53.384,38.043z M50.093,39.722c0.469-0.24,0.938-0.481,1.407-0.721l1.229,2.372
	c-0.359,0.249-0.717,0.5-1.072,0.755L50.093,39.722z M49.627,39.961l1.606,2.471c-0.332,0.239-0.665,0.478-0.997,0.714l-1.707-2.626
	C48.895,40.334,49.261,40.148,49.627,39.961z M48.061,40.756l1.748,2.689c-0.312,0.218-0.625,0.431-0.94,0.639l-1.791-2.835
	C47.406,41.086,47.734,40.921,48.061,40.756z M46.607,41.481l1.824,2.885c-0.142,0.09-1.14,0.673-1.566,0.872l-1.879-2.974
	C45.528,42.007,46.068,41.745,46.607,41.481z M44.509,42.486l1.876,2.968c-0.538,0.234-1.124,0.464-1.739,0.688l-1.828-2.894
	C43.384,43,43.948,42.746,44.509,42.486z M33.575,46.141l2.618,2.342l-9.195-1.979C29.204,46.615,31.421,46.486,33.575,46.141z
	 M25.998,46.823c0,0,10.635,2.284,10.757,2.329l-4.1,1.211C30.396,49.258,28.189,48.058,25.998,46.823z M33.354,50.7l4.218-1.245
	c0.105,0.038,0.211,0.077,0.321,0.118l-2.658,1.995C34.848,51.401,33.639,50.836,33.354,50.7z M35.792,51.802l2.686-2.017
	c0.253,0.092,0.512,0.185,0.774,0.281l-1.774,2.394C36.858,52.233,36.295,52.011,35.792,51.802z M37.988,52.646l1.775-2.394
	c0.138,0.05,0.276,0.1,0.413,0.15l-1.033,2.636C38.741,52.908,38.358,52.777,37.988,52.646z M39.641,53.195l1.025-2.613
	c0.197,0.072,0.387,0.142,0.573,0.211l-0.627,2.693C40.279,53.39,39.957,53.293,39.641,53.195z M41.114,53.623l0.617-2.648
	c0.2,0.075,0.385,0.145,0.558,0.21l-0.176,2.695C41.773,53.798,41.441,53.712,41.114,53.623z M42.626,54.004l0.172-2.632
	c0.404,0.145,0.807,0.269,1.212,0.375l0.031,2.556C43.559,54.211,43.088,54.111,42.626,54.004z M44.563,54.399l-0.03-2.522
	c0.402,0.091,0.806,0.169,1.214,0.233l0.244,2.511C45.508,54.556,45.032,54.482,44.563,54.399z M46.521,54.686l-0.243-2.5
	c0.405,0.053,0.815,0.095,1.231,0.131l0.242,2.49C47.337,54.774,46.927,54.734,46.521,54.686z M48.279,54.847l-0.243-2.497
	c0.286,0.018,0.573,0.034,0.864,0.04l0.42,2.499C48.971,54.881,48.624,54.869,48.279,54.847z M49.851,54.905l-0.422-2.514
	c0.403-0.001,0.808-0.012,1.216-0.034l0.424,2.526C50.661,54.898,50.255,54.908,49.851,54.905z M51.595,54.867l-0.427-2.546
	c0.368-0.028,0.735-0.064,1.104-0.108l0.737,2.535C52.536,54.801,52.064,54.841,51.595,54.867z M53.528,54.671l-0.732-2.522
	c0.533-0.074,1.064-0.163,1.589-0.269l1.033,2.462C54.782,54.466,54.151,54.575,53.528,54.671z M54.902,51.764
	c0.509-0.113,1.012-0.239,1.505-0.379l1.049,2.5c-0.507,0.129-1.012,0.25-1.516,0.355L54.902,51.764z"/>
<path fill="#FFFFFF" d="M142.913,66.738c-0.339-4.839-7.562-3.695-10.702-3.551c-7.316,0.335-16.546,0.704-23.307,2.072
	c-0.365,0.11,2.539,0.56,4.668,0.971c6.535,0.823,12.938,2.534,19.455,3.507C135.237,70.068,143.222,71.157,142.913,66.738z
	 M140.918,66.66c-0.07,0.571-0.372,0.967-0.803,1.24l0.012-2.52C140.674,65.665,140.99,66.075,140.918,66.66z M137.895,68.45
	l0.018-3.601c0.625,0.06,1.209,0.16,1.695,0.319l-0.015,2.981C139.085,68.336,138.49,68.422,137.895,68.45z M135.555,68.364
	l0.018-3.595c0.593-0.006,1.215,0.002,1.819,0.039l-0.019,3.653C136.659,68.46,135.997,68.401,135.555,68.364z M133.255,68.142
	l0.017-3.308c0.467-0.012,1.089-0.041,1.78-0.056l-0.018,3.54C134.445,68.272,133.853,68.216,133.255,68.142z M131.224,67.853
	l0.015-2.955c0.504-0.017,1.008-0.035,1.512-0.048l-0.016,3.218C132.231,68.001,131.728,67.933,131.224,67.853z M129.184,67.513
	l0.013-2.55c0.507-0.018,1.014-0.031,1.52-0.048l-0.015,2.852C130.195,67.684,129.687,67.601,129.184,67.513z M127.335,67.191
	l0.01-2.172c0.443-0.014,0.886-0.025,1.33-0.04l-0.012,2.444C128.218,67.345,127.772,67.266,127.335,67.191z M125.672,66.899
	l0.009-1.83c0.382-0.009,0.763-0.023,1.144-0.035l-0.01,2.066C126.474,67.041,126.086,66.973,125.672,66.899z M123.716,66.553
	l0.007-1.426c0.489-0.018,0.969-0.033,1.436-0.044l-0.009,1.723C124.692,66.726,124.21,66.641,123.716,66.553z M121.935,66.239
	l0.005-1.027c0.423-0.024,0.844-0.046,1.263-0.064l-0.007,1.312C122.773,66.386,122.35,66.312,121.935,66.239z M120.332,65.961
	l0.003-0.641c0.359-0.028,0.72-0.054,1.084-0.077l-0.005,0.905C121.038,66.083,120.674,66.02,120.332,65.961z M119.814,65.363
	l-0.003,0.51c-1.053-0.177-1.831-0.299-2.017-0.303C118.44,65.49,119.119,65.422,119.814,65.363z"/>
<path fill="#FFFFFF" d="M113.67,74.738c0.346-2.991-3.141-5.441-5.377-6.836c-2.651-1.653-6.058-3.045-9.254-2.477
	c-0.295,0.053-0.273,0.497,0.029,0.501c0.674,0.009,1.406,0.182,2.141,0.433c3.83,2.164,5.348,6.539,7.842,9.825
	C110.898,78.62,113.343,77.568,113.67,74.738z"/>
<path fill="#FFFFFF" d="M167.75,56.21c-0.021-2.298-2.102-4.067-4.608-5.026c2.921,0.307,5.773,0.811,8.787,1.385
	c2.001,0.381,6.091,0.473,6.292-2.447c0.409-5.941-12.127-2.811-17.891-0.775c7.974-4.229,13.58-8.258,15.594-10.745
	c0.089,0.011,0.18,0.012,0.273-0.007c0.176-0.036,0.328-0.123,0.444-0.242l2.346,1.681c-0.004,0.073-0.003,0.148,0.012,0.223
	c0.094,0.465,0.546,0.765,1.01,0.671c0.198-0.04,0.362-0.147,0.483-0.29l2.756,0.173c0.001,0.006,0.001,0.012,0.002,0.018
	c0.094,0.465,0.547,0.765,1.011,0.671c0.403-0.081,0.68-0.432,0.686-0.827l2.223-1.144c0.196,0.215,0.495,0.327,0.801,0.265
	c0.379-0.077,0.644-0.393,0.68-0.759l1.211-0.869c0.172,0.095,0.375,0.135,0.582,0.093c0.464-0.094,0.764-0.546,0.67-1.011
	c-0.005-0.023-0.014-0.044-0.021-0.066l1.793-1.787c0.102,0.018,0.209,0.02,0.317-0.002c0.464-0.094,0.764-0.546,0.67-1.011
	c-0.04-0.199-0.148-0.364-0.292-0.485l0.6-1.66c0.043-0.002,0.087-0.004,0.131-0.013c0.464-0.094,0.764-0.546,0.67-1.011
	c-0.062-0.306-0.28-0.538-0.553-0.635l0.118-1.756c0.393-0.142,0.635-0.551,0.55-0.973c-0.081-0.4-0.429-0.677-0.821-0.686
	l-0.891-2.811c0.051-0.143,0.069-0.3,0.036-0.46c-0.094-0.465-0.546-0.765-1.01-0.671c-0.035,0.007-0.067,0.02-0.1,0.031
	l-1.255-1.636c0.152-0.191,0.225-0.444,0.172-0.702c-0.094-0.465-0.546-0.765-1.01-0.671c-0.087,0.018-0.166,0.051-0.24,0.092
	l-2.201-1.292c0.052-0.143,0.069-0.301,0.037-0.462c-0.094-0.465-0.546-0.765-1.011-0.671c-0.214,0.043-0.392,0.166-0.514,0.328
	l-2.272-0.278c-0.002-0.04-0.004-0.081-0.012-0.121c-0.094-0.465-0.546-0.765-1.01-0.671c-0.353,0.071-0.61,0.35-0.672,0.684
	l-2.166,0.357c-0.195-0.237-0.508-0.364-0.829-0.299c-0.454,0.092-0.748,0.527-0.673,0.98l-2.494,1.341
	c-0.196-0.204-0.488-0.308-0.787-0.247c-0.464,0.094-0.764,0.546-0.67,1.011c0.006,0.028,0.016,0.053,0.024,0.079l-1.583,2.265
	c-0.137-0.046-0.286-0.061-0.439-0.03c-0.464,0.094-0.764,0.546-0.67,1.011c0.049,0.241,0.195,0.436,0.389,0.557l-0.508,2.583
	c-0.039,0.002-0.078,0.004-0.118,0.012c-0.464,0.094-0.764,0.546-0.67,1.011c0.061,0.304,0.278,0.535,0.549,0.634L172,31.583
	c-0.246,0.194-0.379,0.514-0.313,0.842c0.069,0.342,0.333,0.593,0.651,0.665l0.95,1.972c-0.173,0.195-0.259,0.464-0.203,0.74
	c0.094,0.465,0.546,0.765,1.01,0.671c0.047-0.009,0.091-0.025,0.134-0.041l1.001,1.003c-0.06,0.15-0.08,0.318-0.045,0.489
	c0.025,0.123,0.076,0.233,0.144,0.328c-0.356,0.256-0.712,0.513-1.07,0.765l-0.648-1.044c0.078-0.163,0.109-0.35,0.07-0.54
	c-0.094-0.465-0.546-0.765-1.01-0.671c-0.464,0.094-0.764,0.546-0.67,1.011c0.027,0.135,0.088,0.255,0.167,0.356l-1.316,0.984
	c-0.196-0.196-0.483-0.293-0.775-0.234c-0.464,0.094-0.764,0.546-0.67,1.011c0.016,0.08,0.046,0.153,0.082,0.222l-1.264,0.806
	c-0.196-0.224-0.501-0.342-0.813-0.279c-0.464,0.094-0.764,0.546-0.67,1.011c0.01,0.049,0.026,0.095,0.043,0.139l-1.571,0.936
	c-0.195-0.241-0.51-0.371-0.835-0.305c-0.464,0.094-0.764,0.546-0.67,1.011c0.018,0.088,0.052,0.167,0.093,0.242l-1.922,1.145
	c-0.175-0.322-0.542-0.509-0.92-0.432c-0.464,0.094-0.764,0.546-0.67,1.011c0.02,0.099,0.059,0.188,0.108,0.269l-1.503,0.751
	c-0.196-0.226-0.501-0.345-0.815-0.281c-0.464,0.094-0.764,0.546-0.67,1.011c0.006,0.029,0.017,0.054,0.025,0.082l-1.671,0.835
	c-0.165-0.348-0.548-0.553-0.942-0.474c-0.464,0.094-0.764,0.546-0.67,1.011c0.009,0.042,0.023,0.081,0.037,0.121l-1.962,0.901
	c-0.196-0.225-0.501-0.345-0.815-0.281c-0.457,0.093-0.754,0.534-0.672,0.991l-1.404,0.645c-0.191-0.152-0.443-0.225-0.702-0.173
	c-0.459,0.093-0.756,0.536-0.672,0.995l-1.598,0.734c-0.043-0.024-0.088-0.043-0.134-0.06c12.153-8.796,3.905-13.667,1.935-13.391
	c-2.416,0.338-4.42,1.896-6.057,3.621c-3.038,3.199-5.415,7.037-8.475,10.248c-2.78,2.918-6.162,5.235-9.363,7.687
	c-17.483,3.932-33.018,4.263-42.294,2.936c-1.539-0.272-1.137,1.447-0.794,1.486c26.52,4.723,55.303-4.123,74.276-13.252
	c0.589-0.008,1.61-0.329,2.381-0.188c0.826,0.151,2.258,1.123,3.161,2.024c1.042,1.041,1.673,2.421,2.728,3.459
	C164.904,58.262,167.771,58.567,167.75,56.21z M170.192,48.065l0.31,3.335c-0.374-0.047-0.753-0.102-1.137-0.162l-0.28-3.016
	C169.456,48.163,169.826,48.11,170.192,48.065z M171.971,47.913l0.339,3.647c-0.409-0.018-0.837-0.051-1.278-0.099l-0.321-3.456
	C171.142,47.961,171.565,47.93,171.971,47.913z M173.377,47.929l0.336,3.612c-0.277,0.023-0.569,0.034-0.877,0.032l-0.341-3.673
	C172.802,47.898,173.095,47.909,173.377,47.929z M174.925,48.228l0.276,2.965c-0.275,0.13-0.602,0.222-0.97,0.284l-0.325-3.493
	C174.284,48.037,174.628,48.116,174.925,48.228z M168.833,51.151c-0.377-0.064-0.755-0.131-1.131-0.202l-0.227-2.442
	c0.361-0.071,0.726-0.138,1.094-0.201L168.833,51.151z M165.942,50.606l-0.162-1.735c0.381-0.087,0.777-0.175,1.182-0.259
	l0.208,2.236C166.752,50.768,166.342,50.686,165.942,50.606z M164.149,50.25l-0.089-0.96c0.373-0.096,0.779-0.197,1.208-0.299
	l0.14,1.508C164.968,50.41,164.547,50.326,164.149,50.25z M163.615,50.15c-0.717-0.131-1.335-0.226-1.793-0.251
	c0.246-0.068,0.871-0.249,1.725-0.475L163.615,50.15z M176.138,49.707c0.016,0.499-0.144,0.879-0.444,1.162l-0.219-2.356
	C175.878,48.794,176.121,49.181,176.138,49.707z M159.098,46.896l1.737-0.868c0.144,0.053,0.303,0.071,0.464,0.038
	c0.016-0.003,0.031-0.01,0.047-0.014l0.389,0.708c-0.828,0.448-1.658,0.887-2.489,1.315l-0.318-0.581
	C159.055,47.327,159.119,47.117,159.098,46.896z M161.972,45.368l2.227-1.326c0.158,0.071,0.337,0.096,0.519,0.059
	c0.071-0.014,0.137-0.039,0.199-0.069l0.432,0.695c-1.048,0.612-2.101,1.206-3.157,1.784l-0.405-0.74
	C161.881,45.655,161.947,45.517,161.972,45.368z M170.488,40.539l0.454,0.73c-0.688,0.451-1.378,0.891-2.071,1.326l-0.494-0.796
	c0.049-0.122,0.067-0.257,0.055-0.394l1.441-0.918c0.164,0.081,0.353,0.113,0.546,0.074
	C170.442,40.556,170.464,40.546,170.488,40.539z M168.019,42.213l0.409,0.658c-0.873,0.543-1.749,1.074-2.629,1.592l-0.498-0.802
	c0.071-0.133,0.108-0.284,0.1-0.443l1.714-1.02c0.182,0.118,0.407,0.168,0.636,0.122C167.849,42.301,167.938,42.262,168.019,42.213z
	 M176.326,31.554c0.546-0.163,0.919-0.652,0.942-1.208l1.426-0.289c0.01,0.063,0.016,0.126,0.028,0.189
	c0.159,0.784,0.519,1.474,1.012,2.034l-1.216,1.318c-0.152-0.024-0.309-0.026-0.469,0.006c-0.22,0.045-0.413,0.146-0.575,0.28
	L176.326,31.554z M172.99,31.534c-0.143-0.091-0.311-0.139-0.488-0.134l-0.298-2.269c0.157-0.045,0.292-0.13,0.396-0.244
	l2.041,1.586c0.004,0.027,0.002,0.054,0.008,0.08c0.02,0.097,0.051,0.189,0.09,0.275L172.99,31.534z M176.586,26.647
	c0.044-0.004,0.088-0.004,0.133-0.013c0.273-0.055,0.508-0.191,0.688-0.377l1.836,0.891c-0.378,0.644-0.595,1.383-0.606,2.157
	l-1.553,0.314c-0.167-0.282-0.429-0.488-0.737-0.586L176.586,26.647z M175.992,21.552c0.284-0.176,0.447-0.506,0.396-0.852
	l2.502-1.344c0.158,0.158,0.374,0.253,0.604,0.253l0.576,1.668c-0.293,0.251-0.472,0.62-0.467,1.018l-2.587,1.843
	c-0.231-0.109-0.494-0.152-0.764-0.11L175.992,21.552z M183.249,18.858l1.385,2.573c-0.03,0.03-0.056,0.063-0.083,0.095l-2.399,0.25
	c-0.236-0.577-0.854-0.924-1.487-0.796c-0.045,0.009-0.087,0.027-0.13,0.04l-0.543-1.571c0.236-0.167,0.375-0.447,0.359-0.745
	l2.039-0.336C182.541,18.696,182.884,18.894,183.249,18.858z M187.456,19.459l2.155,1.265c-0.074,0.16-0.102,0.343-0.064,0.529
	c0.041,0.2,0.15,0.367,0.296,0.487l-0.513,2.752c-0.155-0.026-0.316-0.028-0.479,0.005c-0.133,0.027-0.254,0.078-0.367,0.14
	l-1.829-1.516c0.193-0.284,0.277-0.642,0.203-1.006c-0.063-0.309-0.231-0.566-0.457-0.753l0.727-1.77
	c0.005-0.001,0.009,0,0.014-0.001C187.259,19.567,187.364,19.521,187.456,19.459z M192.75,24.902
	c0.085-0.017,0.161-0.049,0.233-0.088l0.791,2.495c-0.277,0.188-0.43,0.531-0.359,0.88c0.004,0.02,0.012,0.038,0.018,0.058
	l-2.516,1.514c-0.247-0.275-0.602-0.444-0.984-0.442l-0.384-2.275c0.616-0.214,0.997-0.851,0.864-1.509
	c-0.023-0.116-0.065-0.222-0.116-0.323l1.804-0.44C192.285,24.896,192.516,24.949,192.75,24.902z M194.023,28.84l-0.117,1.723
	c-0.227,0.065-0.406,0.216-0.513,0.411l-2.137-0.267c0.005-0.107,0.002-0.216-0.021-0.326c-0.012-0.06-0.033-0.114-0.053-0.171
	l2.538-1.527C193.809,28.755,193.911,28.808,194.023,28.84z M189.515,37.025c-0.087,0.168-0.123,0.363-0.082,0.563
	c0.014,0.069,0.038,0.134,0.067,0.195l-0.982,0.704c-0.186-0.287-0.533-0.447-0.888-0.375c-0.238,0.048-0.432,0.192-0.553,0.382
	l-3.312-1.181c0.217-0.219,0.349-0.511,0.376-0.826l2.36-0.561c0.292,0.424,0.818,0.656,1.354,0.548
	c0.225-0.045,0.42-0.15,0.584-0.287L189.515,37.025z M183.919,39.818c-0.007,0.001-0.012,0.004-0.018,0.006l-0.439-2.063
	l3.486,1.241c0.001,0.017,0.003,0.034,0.005,0.051l-2.163,1.112C184.599,39.896,184.263,39.748,183.919,39.818z M179.366,39.371
	c-0.069,0.046-0.128,0.102-0.18,0.164l-2.314-1.658c0.014-0.095,0.015-0.193-0.005-0.293c-0.014-0.069-0.038-0.132-0.066-0.193
	l0.818-1.361c0.206,0.128,0.447,0.201,0.699,0.2L179.366,39.371z M179.552,35.361c0.082-0.223,0.11-0.47,0.059-0.72
	c-0.057-0.279-0.198-0.518-0.391-0.7l1.052-1.141c0.649,0.523,1.442,0.86,2.29,0.952l0.01,1.325c-0.003,0-0.007,0-0.01,0.001
	c-0.461,0.093-0.815,0.417-0.972,0.826L179.552,35.361z M180.631,29.588c-0.081-0.4-0.056-0.795,0.039-1.165l1.003,0.52
	c-0.019,0.152-0.021,0.307,0.011,0.466c0.045,0.224,0.145,0.422,0.277,0.592l-0.724,0.785
	C180.945,30.454,180.725,30.052,180.631,29.588z M177.755,25.593c0.033-0.167,0.035-0.344-0.001-0.522
	c-0.031-0.153-0.092-0.292-0.168-0.419l2.259-1.609c0.208,0.295,0.531,0.491,0.89,0.544l0.466,1.784
	c-0.596,0.274-1.112,0.671-1.522,1.156L177.755,25.593z M189.21,29.536c-0.221,0.145-0.393,0.351-0.494,0.592l-1.316-0.161
	c0.064-0.476,0.057-0.97-0.044-1.467c-0.081-0.399-0.217-0.772-0.392-1.118l1.282-0.592c0.158,0.138,0.345,0.238,0.55,0.289
	L189.21,29.536z M183.698,31.624c-0.68,0.138-1.349-0.008-1.894-0.35l0.755-0.818c0.251,0.1,0.532,0.133,0.816,0.075
	c0.104-0.021,0.201-0.054,0.294-0.095l0.872,0.846C184.287,31.439,184.007,31.561,183.698,31.624z M182.665,26.519
	c0.305-0.062,0.605-0.058,0.896-0.014l-0.407,1.19c-0.114-0.005-0.23-0.001-0.348,0.023c-0.351,0.071-0.641,0.268-0.845,0.531
	l-1-0.519C181.324,27.128,181.922,26.67,182.665,26.519z M181.482,23.482c0.392-0.181,0.669-0.541,0.747-0.959l2.012-0.21
	c-0.005,0.108-0.002,0.217,0.021,0.328c0.057,0.282,0.201,0.522,0.396,0.704l-0.776,1.704c-0.551-0.108-1.132-0.113-1.717,0.005
	c-0.087,0.018-0.17,0.042-0.254,0.065L181.482,23.482z M182.932,28.509c0.325-0.066,0.642,0.144,0.708,0.47
	c0.066,0.325-0.144,0.642-0.47,0.708c-0.325,0.066-0.642-0.145-0.708-0.47C182.396,28.892,182.607,28.575,182.932,28.509z
	 M184.252,29.959c0.225-0.313,0.326-0.712,0.244-1.12c-0.08-0.395-0.315-0.717-0.629-0.92l0.411-1.2
	c0.722,0.338,1.284,0.995,1.454,1.836c0.169,0.835-0.089,1.652-0.615,2.243L184.252,29.959z M187.953,25.17
	c-0.142,0.264-0.202,0.573-0.138,0.89c0.006,0.032,0.02,0.06,0.028,0.09l-1.279,0.59c-0.501-0.67-1.18-1.182-1.956-1.48l0.719-1.579
	c0.16,0.028,0.327,0.031,0.495-0.003c0.084-0.017,0.164-0.043,0.24-0.074L187.953,25.17z M186.453,34.507
	c-0.123,0.209-0.189,0.451-0.183,0.705l-2.284,0.543c-0.148-0.275-0.382-0.489-0.665-0.603l-0.011-1.384
	c0.199-0.013,0.399-0.034,0.6-0.074c0.571-0.115,1.091-0.339,1.549-0.641L186.453,34.507z M187.008,33.991l-0.959-1.407
	c0.548-0.516,0.96-1.163,1.188-1.882l1.397,0.171c0.002,0.011,0.001,0.022,0.003,0.033c0.062,0.308,0.23,0.565,0.454,0.751
	l-0.933,2.325c-0.25-0.119-0.537-0.165-0.829-0.106C187.214,33.899,187.109,33.941,187.008,33.991z M174.779,35.685l2.246-0.478
	c0.04,0.169,0.108,0.323,0.202,0.457L176.427,37c-0.17-0.09-0.368-0.128-0.571-0.087c-0.107,0.022-0.203,0.064-0.29,0.119
	l-0.924-0.927C174.723,35.983,174.77,35.837,174.779,35.685z M180.692,40.126c0.003-0.069,0.001-0.139-0.014-0.21
	c-0.08-0.397-0.422-0.671-0.81-0.685l-1.036-3.107c0.078-0.033,0.151-0.074,0.219-0.12l2.482,0.662
	c0.144,0.645,0.735,1.072,1.379,1.029l0.516,2.42c-0.044,0.054-0.082,0.112-0.112,0.176L180.692,40.126z M192.408,35.135
	l-1.613,1.607c-0.19-0.147-0.438-0.216-0.692-0.165c-0.077,0.016-0.147,0.044-0.215,0.078l-1.123-0.875
	c0.086-0.167,0.138-0.35,0.147-0.543l3.273-0.59c0.003,0.025,0.003,0.05,0.008,0.074C192.225,34.883,192.303,35.023,192.408,35.135z
	 M193.097,33.7c-0.077-0.006-0.155-0.005-0.235,0.011c-0.239,0.048-0.433,0.193-0.554,0.384l-3.477,0.626
	c-0.024-0.066-0.054-0.129-0.088-0.189l1.036-2.579c0.137,0.017,0.277,0.018,0.419-0.011c0.423-0.086,0.753-0.366,0.927-0.727
	l2.169,0.271c0.003,0.023,0.002,0.044,0.007,0.067c0.048,0.235,0.188,0.428,0.374,0.549L193.097,33.7z M191.889,23.558
	c-0.136,0.188-0.199,0.428-0.149,0.673c0.006,0.03,0.017,0.057,0.027,0.086l-1.833,0.446c-0.036-0.028-0.07-0.057-0.108-0.082
	l0.511-2.744c0.073,0.004,0.146,0.003,0.221-0.012c0.022-0.004,0.041-0.013,0.063-0.019L191.889,23.558z M186.116,18.742
	c-0.001,0.059,0.005,0.118,0.017,0.178c0.055,0.271,0.234,0.484,0.464,0.597l-0.657,1.597c-0.203-0.061-0.421-0.081-0.643-0.036
	c-0.078,0.016-0.152,0.041-0.223,0.069l-1.345-2.497c0.061-0.053,0.115-0.113,0.158-0.18L186.116,18.742z M173.567,23.644
	l1.483-2.121c0.126,0.089,0.274,0.142,0.431,0.153l0.268,2.54c-0.188,0.119-0.338,0.283-0.445,0.473l-1.596-0.344
	c0.027-0.117,0.033-0.241,0.007-0.366C173.69,23.853,173.637,23.741,173.567,23.644z M172.931,25.001
	c0.038-0.002,0.076-0.004,0.115-0.011c0.139-0.028,0.261-0.091,0.365-0.175l1.734,0.374c-0.015,0.133-0.016,0.269,0.012,0.408
	c0.083,0.408,0.348,0.729,0.69,0.908l-0.252,2.514c-0.431,0.119-0.756,0.439-0.895,0.839l-1.882-1.463
	c0.008-0.083,0.008-0.168-0.009-0.255c-0.049-0.24-0.194-0.435-0.387-0.556L172.931,25.001z M172.889,33.031
	c0.351-0.163,0.56-0.549,0.479-0.946c-0.009-0.044-0.024-0.085-0.039-0.126l1.725-0.695c0.124,0.113,0.266,0.202,0.423,0.262
	l1.536,3.117c-0.002,0.011-0.001,0.022-0.003,0.033l-2.358,0.503c-0.184-0.294-0.534-0.46-0.895-0.387
	c-0.006,0.001-0.011,0.004-0.017,0.005L172.889,33.031z M171.377,40.981l-0.457-0.736c0.141-0.182,0.21-0.417,0.171-0.66
	l1.543-1.154c0.121,0.03,0.248,0.038,0.378,0.011c0.081-0.016,0.156-0.047,0.226-0.084l0.593,0.954
	C173.016,39.882,172.199,40.438,171.377,40.981z M158.419,47.816c0.027-0.005,0.051-0.016,0.077-0.024l0.284,0.519
	c-0.927,0.472-1.855,0.934-2.784,1.381l-0.294-0.784c0.06-0.089,0.102-0.19,0.126-0.296l1.908-0.954
	C157.925,47.8,158.169,47.866,158.419,47.816z M155.161,49.27c0.038-0.008,0.072-0.021,0.107-0.033l0.256,0.679
	c-1.049,0.499-2.1,0.984-3.151,1.453l-0.229-0.546c0.202-0.177,0.313-0.443,0.286-0.723l2.086-0.958
	C154.699,49.265,154.928,49.317,155.161,49.27z M150.981,50.794c0.177,0.173,0.425,0.262,0.684,0.237l0.231,0.55
	c-0.815,0.36-1.631,0.714-2.447,1.056l-0.12-0.32c0.247-0.194,0.379-0.514,0.313-0.842c-0.004-0.02-0.012-0.038-0.018-0.057
	L150.981,50.794z M146.655,53.771c0.129-0.185,0.186-0.42,0.138-0.659c-0.013-0.062-0.033-0.121-0.057-0.177l1.47-0.675
	c0.166,0.161,0.395,0.249,0.635,0.238l0.127,0.337C148.196,53.155,147.425,53.467,146.655,53.771z M136.635,52.343l2.732,2.507
	c-0.411,0.256-0.82,0.517-1.238,0.761l-2.485-2.28C135.977,53.008,136.307,52.678,136.635,52.343z M138.026,50.873l3.088,2.834
	c-0.425,0.292-0.85,0.583-1.284,0.86l-2.827-2.594C137.346,51.615,137.686,51.244,138.026,50.873z M138.465,50.402
	c0.25-0.278,0.566-0.665,0.932-1.121l3.475,3.19c-0.282,0.205-0.546,0.395-0.781,0.565c-0.176,0.128-0.359,0.244-0.537,0.368
	l-3.173-2.912C138.409,50.461,138.438,50.432,138.465,50.402z M140.804,47.53l3.896,3.576c-0.487,0.377-0.96,0.73-1.398,1.051
	l-3.579-3.284C140.054,48.459,140.417,48.004,140.804,47.53z M142.016,46.086l4.16,3.818c-0.351,0.302-0.707,0.594-1.06,0.875
	l-3.98-3.653C141.42,46.783,141.714,46.434,142.016,46.086z M143.364,44.612l4.279,3.927c-0.341,0.347-0.701,0.687-1.073,1.019
	l-4.21-3.863C142.689,45.325,143.025,44.962,143.364,44.612z M144.713,43.337l4.147,3.806c-0.257,0.342-0.547,0.682-0.857,1.018
	l-4.271-3.92C144.058,43.92,144.386,43.617,144.713,43.337z M146.505,42.092l3.407,3.126c-0.157,0.495-0.415,0.996-0.749,1.495
	l-4.044-3.711C145.59,42.631,146.056,42.317,146.505,42.092z M137.648,55.879c-0.478,0.272-0.957,0.541-1.443,0.8l-2.087-1.916
	c0.387-0.35,0.772-0.703,1.152-1.066L137.648,55.879z M135.712,56.935c-0.458,0.237-0.919,0.469-1.383,0.695l-1.705-1.565
	c0.371-0.313,0.743-0.625,1.107-0.949L135.712,56.935z M133.828,57.877c-0.459,0.219-0.924,0.428-1.387,0.637l-1.328-1.219
	c0.373-0.294,0.748-0.585,1.113-0.888L133.828,57.877z M131.891,58.718c-0.591,0.165-1.18,0.325-1.767,0.482l-0.69-0.633
	c0.425-0.31,0.849-0.622,1.264-0.943L131.891,58.718z M145.098,53.312c0.002,0.046,0.005,0.093,0.014,0.14
	c0.069,0.343,0.335,0.595,0.655,0.667c-1.235,0.478-2.469,0.936-3.7,1.375C143.109,54.804,144.12,54.069,145.098,53.312z
	 M149.462,42.473c0.539,0.675,0.697,1.407,0.586,2.162l-3.013-2.766C147.967,41.544,148.81,41.656,149.462,42.473z M129.007,58.882
	l0.52,0.478c-0.64,0.168-1.277,0.329-1.912,0.486C128.084,59.529,128.55,59.209,129.007,58.882z"/>
<path fill="#FFFFFF" d="M111.556,62.802c0.185-0.442-0.028-0.911-0.213-1.327c0.198-0.064,0.399-0.13,0.602-0.196
	c0.191,0.375,0.413,0.737,0.682,1.003c0.365,0.362,1.22,0.236,1.182-0.404c-0.023-0.381-0.131-0.764-0.283-1.131
	c0.267-0.093,0.537-0.188,0.808-0.285c0.194,0.561,0.508,1.13,0.997,1.281c0.371,0.115,0.765-0.07,0.897-0.441
	c0.165-0.464-0.074-0.967-0.289-1.438c0.299-0.116,0.599-0.234,0.9-0.357c0.302,0.606,0.694,1.25,1.307,1.436
	c0.57,0.174,1.071-0.294,0.989-0.869c-0.053-0.367-0.557-1.183-0.61-1.29c0.313-0.142,0.625-0.289,0.935-0.439
	c0.248,0.361,0.554,0.708,0.808,1.049c0.33,0.443,1.222,0.934,1.5,0.147c0.173-0.489-0.205-0.923-0.433-1.327
	c-0.119-0.21-0.236-0.432-0.37-0.641c0.284-0.155,0.565-0.314,0.842-0.477c0.104,0.139,0.934,1.241,1.437,1.366
	c0.577,0.144,1.042-0.371,0.807-0.929c-0.168-0.399-0.864-1.209-0.911-1.272c0.282-0.189,0.557-0.384,0.828-0.584
	c0.115,0.099,0.983,0.891,1.368,1.1c0.711,0.385,1.458-0.264,1.148-1.021c-0.163-0.4-0.888-1.252-0.971-1.342
	c0.2-0.183,0.394-0.369,0.582-0.559c0.342,0.204,0.68,0.414,1.024,0.616c0.308,0.181,0.614,0.294,0.967,0.345
	c0.347,0.051,0.834-0.289,0.817-0.671c-0.029-0.651-0.57-0.905-1.051-1.236c-0.195-0.134-0.385-0.267-0.576-0.399
	c0.201-0.261,0.39-0.53,0.568-0.804c0.36,0.185,0.716,0.378,1.081,0.553c0.254,0.123,0.484,0.213,0.77,0.225
	c0.507,0.022,0.879-0.397,0.817-0.888c-0.067-0.532-0.66-0.715-1.064-0.935c-0.266-0.145-0.531-0.292-0.8-0.427
	c0.106-0.233,0.204-0.471,0.293-0.714c0.268,0.023,1.868,0.132,2.307-0.23c0.298-0.247,0.304-0.718,0.057-0.998
	c-0.33-0.375-1.682-0.498-1.894-0.515c0.065-0.358,0.112-0.724,0.141-1.099c0.431-0.01,0.861-0.052,1.288-0.126
	c0.634-0.11,1.33-0.727,0.835-1.379c-0.338-0.445-0.873-0.341-1.355-0.274c-0.279,0.038-0.561,0.059-0.843,0.076
	c-0.05-0.418-0.119-0.825-0.204-1.222c0.339-0.088,0.678-0.241,0.988-0.344c0.431-0.142,0.947-0.31,1.116-0.769
	c0.049-0.132,0.016-0.295-0.08-0.398c-0.333-0.355-0.875-0.314-1.325-0.263c-0.356,0.04-0.772,0.076-1.138,0.198
	c-0.077-0.222-0.159-0.439-0.245-0.654c0.75-0.304,1.638-0.624,2.018-1.302c0.227-0.405,0.034-1.086-0.526-1.068
	c-0.76,0.025-1.521,0.446-2.195,0.888c-0.167-0.303-0.344-0.594-0.528-0.878c0.201-0.133,0.395-0.28,0.59-0.428
	c0.381-0.29,0.837-0.618,1.098-1.022c0.278-0.428-0.021-0.915-0.487-0.989c-0.522-0.082-1.02,0.211-1.441,0.488
	c-0.265,0.175-0.535,0.359-0.8,0.547c-0.238-0.284-0.483-0.555-0.733-0.812c0.214-0.156,1.544-1.408,1.511-2.004
	c-0.026-0.474-0.358-0.836-0.861-0.756c-0.517,0.084-1.745,1.317-1.95,1.57c-0.285-0.231-0.571-0.443-0.856-0.639
	c0.309-0.347,0.973-1.624,1.044-1.854c0.125-0.402-0.064-0.921-0.493-1.054c-0.01-0.003-0.019-0.006-0.028-0.009
	c-0.28-0.088-0.609-0.042-0.827,0.167c-0.497,0.476-0.865,1.238-1.028,1.947c-0.34-0.176-0.67-0.324-0.984-0.444
	c0.176-0.743,0.26-1.547,0.174-2.244c-0.095-0.765-1.218-0.769-1.448-0.094c-0.198,0.582-0.392,1.269-0.504,1.937
	c-0.412-0.046-0.822-0.078-1.229-0.089c-0.023-0.761-0.254-1.589-0.652-2.171c-0.256-0.374-0.783-0.141-0.928,0.188
	c-0.254,0.574-0.29,1.354-0.242,2.049c-0.494,0.048-0.984,0.121-1.47,0.215c-0.078-0.661-0.262-1.351-0.528-1.917
	c-0.332-0.704-1.501-0.491-1.515,0.307c-0.012,0.649,0.138,1.375,0.363,2.025c-0.265,0.08-0.529,0.165-0.791,0.257
	c-0.115-0.253-0.887-1.804-1.428-2.021c-0.172-0.069-0.389-0.016-0.524,0.106c-0.466,0.422,0.106,2.284,0.266,2.598
	c-0.307,0.141-0.611,0.29-0.912,0.446c-0.194-0.759-0.69-1.567-1.181-2.028c-0.534-0.502-1.421-0.122-1.293,0.648
	c0.078,0.472,0.777,1.951,0.956,2.235c-0.301,0.185-0.598,0.377-0.893,0.575c-0.179-0.277-1.11-1.412-1.403-1.669
	c-0.567-0.5-1.54-0.155-1.38,0.691c0.145,0.766,0.768,1.451,1.27,2.065c-0.333,0.256-0.659,0.518-0.98,0.785
	c-0.15-0.217-0.857-1.01-1.035-1.21c-0.263-0.297-0.478-0.44-0.87-0.518c-0.36-0.071-0.764,0.308-0.76,0.662
	c0.007,0.656,1.227,1.984,1.402,2.174c-0.259,0.238-0.515,0.48-0.767,0.724c-0.365-0.516-0.831-0.976-1.323-1.37
	c-0.262-0.21-0.635-0.258-0.921,0.066c-0.444,0.394-0.113,0.994-0.06,1.068c0.332,0.471,1.202,1.311,1.218,1.326
	c-0.274,0.286-0.545,0.575-0.812,0.867c-0.424-0.443-0.946-0.845-1.459-1.036c-0.577-0.214-1.226,0.467-0.89,1.024
	c0.206,0.342,1.041,1.191,1.176,1.334c-0.29,0.335-0.576,0.673-0.86,1.013c-0.065-0.047-1.053-0.67-1.126-0.686
	c-0.53-0.115-1.077,0.248-0.96,0.844c0.089,0.454,0.921,1.136,0.981,1.186c-0.277,0.343-0.552,0.686-0.827,1.031
	c-0.33-0.27-0.777-0.677-1.237-0.531c-0.334,0.105-0.569,0.325-0.605,0.689c-0.023,0.242,0.302,0.791,0.769,1.193
	c-0.267,0.337-0.535,0.673-0.803,1.01c-0.346-0.32-0.732-0.586-1.229-0.502c-0.419,0.07-0.614,0.476-0.571,0.862
	c0.042,0.378,0.372,0.713,0.7,1.007c-2.522,7.001-15.548,9.702-18.064,11.551c-0.389,0.286,1.438,1.02,3.122,1.278
	c8.019,1.88,17.164,1.707,25.322-0.323c0.048,0.091,0.1,0.179,0.154,0.264c0.44,0.677,1.477,0.373,1.357-0.471
	c-0.009-0.059-0.026-0.117-0.04-0.175c0.438-0.117,0.872-0.237,1.304-0.36c0.16,0.297,0.374,0.599,0.611,0.767
	c0.311,0.221,0.847,0.07,0.944-0.321c0.068-0.279,0.036-0.588-0.044-0.886c0.321-0.097,0.641-0.194,0.958-0.293
	c0.021,0.046,0.479,1.102,1.005,1.244C111.018,63.383,111.39,63.199,111.556,62.802z M96.162,53.288l2.762,1.459
	c-0.286,0.287-0.566,0.569-0.839,0.844l-2.609-1.378C95.708,53.905,95.936,53.597,96.162,53.288z M97.239,51.797l2.882,1.753
	c-0.271,0.271-0.542,0.542-0.812,0.812l-2.837-1.499C96.731,52.506,96.986,52.15,97.239,51.797z M102.165,45.559l2.975,2.973
	c-0.164,0.165-0.329,0.33-0.49,0.496c-0.1,0.102-0.236,0.24-0.399,0.404l-2.928-2.926C101.584,46.21,101.863,45.895,102.165,45.559z
	 M103.982,43.614l2.787,3.34c-0.428,0.396-0.848,0.8-1.26,1.209l-2.994-2.991C102.965,44.676,103.452,44.153,103.982,43.614z
	 M105.424,42.216l2.852,3.419c-0.381,0.314-0.755,0.637-1.121,0.968l-2.802-3.359C104.695,42.903,105.052,42.56,105.424,42.216z
	 M106.986,40.863l2.936,3.52c-0.422,0.295-0.836,0.603-1.24,0.924l-2.871-3.442C106.187,41.527,106.58,41.193,106.986,40.863z
	 M108.87,39.455l2.555,3.999c-0.118,0.058-0.232,0.109-0.353,0.171c-0.243,0.148-0.481,0.304-0.718,0.461l-2.964-3.554
	C107.863,40.161,108.36,39.803,108.87,39.455z M110.872,38.227l1.685,4.721c-0.215,0.085-0.433,0.175-0.659,0.278l-2.597-4.065
	C109.806,38.83,110.333,38.521,110.872,38.227z M117.768,45.419l-2.414,1.359c-0.357-0.393-0.901-0.598-1.459-0.485
	c-0.844,0.171-1.39,0.994-1.219,1.838c0.035,0.175,0.104,0.333,0.19,0.479l-2.017,1.136c-0.286-0.305-0.716-0.462-1.156-0.373
	c-0.675,0.137-1.112,0.795-0.975,1.47c0.007,0.034,0.021,0.065,0.03,0.098l-2.181,1.227c-0.214-0.235-0.54-0.356-0.874-0.289
	c-0.506,0.102-0.834,0.596-0.731,1.103c0.007,0.033,0.019,0.062,0.029,0.094l-5.118,2.88c2.807-2.549,6.615-6.388,9.214-8.529
	C110.188,46.518,115.727,43.162,117.768,45.419z M114.273,51.31c-2.267,1.253-10.384,3.828-13.816,4.915l4.824-2.715
	c0.211,0.176,0.493,0.261,0.783,0.203c0.497-0.101,0.82-0.579,0.734-1.076l2.197-1.237c0.285,0.334,0.733,0.511,1.193,0.418
	c0.675-0.137,1.111-0.795,0.975-1.47c-0.011-0.054-0.03-0.103-0.048-0.153l2.095-1.18c0.35,0.292,0.821,0.434,1.303,0.336
	c0.844-0.171,1.389-0.994,1.219-1.838c-0.021-0.104-0.052-0.203-0.092-0.297l2.44-1.373
	C119.683,48.653,115.314,50.734,114.273,51.31z M119.211,55.366l-2.26-3.18c0.319-0.198,0.627-0.409,0.927-0.631l2.842,2.862
	C120.256,54.734,119.755,55.05,119.211,55.366z M117.393,56.345l-1.82-3.381c0.315-0.156,0.628-0.321,0.936-0.5l2.248,3.163
	C118.328,55.866,117.874,56.105,117.393,56.345z M115.359,57.291l-1.531-3.583c0.419-0.153,0.843-0.33,1.272-0.526l1.827,3.393
	C116.431,56.813,115.91,57.052,115.359,57.291z M113.531,58.043l-1.594-3.728c0.578-0.169,1.05-0.313,1.4-0.428l1.542,3.608
	C114.447,57.677,113.999,57.859,113.531,58.043z M111.581,58.769l-1.157-4.025c0.355-0.099,0.694-0.195,1.008-0.285l1.612,3.77
	C112.575,58.409,112.087,58.589,111.581,58.769z M110.038,59.302l-1.186-4.123c0.37-0.101,0.726-0.199,1.07-0.294l1.167,4.059
	C110.747,59.062,110.397,59.182,110.038,59.302z M108.388,59.836l-0.959-4.27c0.313-0.084,0.62-0.168,0.921-0.25l1.193,4.15
	C109.167,59.589,108.782,59.712,108.388,59.836z M103.846,61.165c-0.009,0.003-0.019,0.005-0.029,0.007l-0.951-4.39
	c0.351-0.093,0.703-0.186,1.058-0.28l0.948,4.377C104.535,60.974,104.196,61.069,103.846,61.165z M100.763,57.336l0.833,4.374
	c-0.454,0.099-0.909,0.191-1.365,0.275l-0.461-4.388C100.092,57.513,100.424,57.426,100.763,57.336z M102.105,61.601l-0.837-4.397
	c0.359-0.094,0.724-0.191,1.095-0.288l0.95,4.386C102.911,61.406,102.509,61.508,102.105,61.601z M104.429,56.368
	c0.347-0.092,0.693-0.184,1.039-0.276l0.974,4.337c-0.348,0.102-0.706,0.205-1.067,0.308L104.429,56.368z M106.942,60.279
	l-0.97-4.322c0.321-0.086,0.639-0.171,0.954-0.256l0.964,4.291C107.58,60.087,107.263,60.183,106.942,60.279z M118.299,51.24
	c0.211-0.17,0.408-0.351,0.604-0.534l3.509,2.423c-0.385,0.329-0.803,0.658-1.259,0.986L118.299,51.24z M106.211,52.735
	c0.041,0.201-0.089,0.396-0.289,0.437c-0.201,0.041-0.396-0.089-0.436-0.29c-0.041-0.201,0.089-0.396,0.289-0.436
	C105.975,52.405,106.17,52.534,106.211,52.735z M110.402,50.484c0.053,0.263-0.117,0.518-0.379,0.571
	c-0.262,0.053-0.517-0.116-0.57-0.379c-0.053-0.262,0.116-0.518,0.378-0.571C110.093,50.052,110.349,50.222,110.402,50.484z
	 M114.866,47.689c0.068,0.338-0.15,0.667-0.487,0.735c-0.338,0.068-0.667-0.15-0.735-0.488c-0.068-0.338,0.15-0.667,0.488-0.735
	C114.468,47.132,114.797,47.351,114.866,47.689z M114.9,42.284l-0.836-5.463c0.355-0.119,0.714-0.232,1.081-0.33
	c0.323-0.074,0.649-0.121,0.977-0.152l-0.208,5.855C115.595,42.198,115.256,42.23,114.9,42.284z M113.563,37l0.824,5.381
	c-0.422,0.091-0.868,0.218-1.34,0.385l-1.71-4.79C112.05,37.61,112.793,37.283,113.563,37z M100.977,46.898l2.905,2.903
	c-0.249,0.249-0.537,0.536-0.855,0.853l-3.121-2.47C100.258,47.74,100.614,47.309,100.977,46.898z M102.655,51.025
	c-0.267,0.266-0.548,0.546-0.841,0.838l-3.088-2.126c0.285-0.388,0.571-0.769,0.858-1.141L102.655,51.025z M101.437,52.237
	c-0.305,0.304-0.618,0.616-0.935,0.932l-2.958-1.799c0.292-0.409,0.583-0.814,0.873-1.213L101.437,52.237z M97.701,55.979
	c-0.239,0.242-0.47,0.476-0.688,0.698l-2.703-0.975c0.287-0.353,0.569-0.71,0.844-1.068L97.701,55.979z M96.612,57.088
	c-0.277,0.284-0.528,0.545-0.746,0.773l-3.081-0.4c0.404-0.434,0.794-0.879,1.172-1.332L96.612,57.088z M96.282,58.517L95.6,62.634
	c-0.894,0.089-1.79,0.162-2.69,0.218l3.197-4.288C96.163,58.548,96.222,58.533,96.282,58.517z M96.137,62.583l0.698-4.212
	c0.223-0.059,0.46-0.122,0.715-0.189l0.439,4.17C97.372,62.438,96.755,62.516,96.137,62.583z M98.058,58.048
	c0.377-0.099,0.779-0.205,1.202-0.316l0.458,4.347c-0.404,0.071-0.809,0.136-1.215,0.196L98.058,58.048z M122.815,52.774
	l-3.525-2.433c0.21-0.216,0.406-0.441,0.589-0.672l4.134,1.89C123.652,51.966,123.257,52.371,122.815,52.774z M125.223,50.02
	c-0.264,0.379-0.547,0.754-0.856,1.126l-4.182-1.912c0.124-0.18,0.256-0.356,0.362-0.544c0.016-0.027,0.028-0.06,0.043-0.09
	l5.136,0.551C125.58,49.454,125.417,49.747,125.223,50.02z M125.945,48.651l-5.197-0.558c0.044-0.224,0.066-0.478,0.067-0.753
	l5.587-0.624C126.333,47.388,126.181,48.039,125.945,48.651z M126.443,46.186l-5.651,0.631c-0.021-0.225-0.057-0.458-0.108-0.695
	l5.689-1.513C126.441,45.135,126.465,45.664,126.443,46.186z M126.292,44.091l-5.743,1.528c-0.058-0.189-0.125-0.378-0.204-0.564
	l5.581-2.373C126.083,43.14,126.205,43.612,126.292,44.091z M125.743,42.193l-5.626,2.392c-0.046-0.084-0.092-0.167-0.143-0.248
	l4.981-3.684C125.264,41.13,125.525,41.65,125.743,42.193z M124.135,39.595c0.184,0.197,0.355,0.411,0.519,0.631l-4.979,3.683
	c-0.069-0.089-0.14-0.175-0.216-0.259l4.085-4.634C123.748,39.203,123.947,39.394,124.135,39.595z M123.151,38.673l-4.065,4.61
	c-0.136-0.119-0.279-0.234-0.434-0.338l3.406-5.066C122.439,38.121,122.805,38.386,123.151,38.673z M121.612,37.609l-3.414,5.076
	c-0.153-0.076-0.314-0.143-0.482-0.203l2.18-5.655C120.489,37.033,121.064,37.296,121.612,37.609z M119.4,36.665l-2.186,5.67
	c-0.245-0.058-0.503-0.101-0.778-0.122l0.209-5.906C117.57,36.278,118.5,36.402,119.4,36.665z M92.339,57.931l2.945,0.382
	l-7.107,3.014C89.741,60.361,91.107,59.199,92.339,57.931z M85.039,63.225l10.153-4.305l-2.958,3.969
	c-0.257,0.014-0.514,0.03-0.772,0.042C89.101,63.04,87.262,63.245,85.039,63.225z"/>
<path fill="#FFFFFF" d="M130.347,74.987c1.014-0.991,1.248-2.392,0.515-3.622c-2.06-3.457-9.002-4.441-12.493-4.917
	c-11.041-1.506-13.906-1.024-14.77-1.07c-0.911-0.048,7.97,5.156,11.649,6.873c2.59,1.209,5.331,2.2,8.078,2.981
	C125.059,75.724,128.818,76.481,130.347,74.987z M126.902,74.032c-0.504,0.008-0.975-0.028-1.434-0.082l0.792-4.191
	c0.391,0.178,0.781,0.368,1.168,0.586c0.066,0.037,0.125,0.079,0.187,0.119l-0.674,3.565
	C126.927,74.029,126.916,74.031,126.902,74.032z M123.593,73.571l0.853-4.512c0.444,0.141,0.885,0.303,1.323,0.485l-0.82,4.339
	C124.485,73.806,124.036,73.696,123.593,73.571z M122.027,73.048l0.836-4.42c0.362,0.083,0.723,0.179,1.081,0.282l-0.853,4.51
	C122.737,73.307,122.382,73.182,122.027,73.048z M120.681,72.527l0.789-4.17c0.296,0.05,0.59,0.105,0.883,0.165l-0.82,4.34
	C121.252,72.753,120.969,72.641,120.681,72.527z M119.309,71.98l0.725-3.833c0.308,0.039,0.615,0.082,0.92,0.128l-0.767,4.059
	C120.071,72.287,119.485,72.051,119.309,71.98z M117.904,71.38l0.643-3.401c0.324,0.033,0.647,0.067,0.968,0.104l-0.698,3.695
	C118.522,71.653,118.215,71.518,117.904,71.38z M116.285,70.638l0.534-2.825c0.405,0.037,0.808,0.075,1.208,0.113l-0.612,3.236
	C117.045,70.995,116.668,70.818,116.285,70.638z M114.921,69.984l0.437-2.312c0.315,0.032,0.628,0.063,0.94,0.093l-0.5,2.644
	C115.508,70.27,115.214,70.126,114.921,69.984z M113.543,69.307l0.339-1.794c0.342,0.037,0.662,0.071,0.92,0.1
	c0.011,0.001,0.023,0.002,0.034,0.004l-0.402,2.131C114.137,69.602,113.841,69.454,113.543,69.307z M111.858,68.465l0.216-1.143
	c0.443,0.046,0.879,0.092,1.288,0.135l-0.304,1.609C112.652,68.864,112.254,68.664,111.858,68.465z M127.482,73.976l0.598-3.163
	C129.301,71.929,129.368,73.656,127.482,73.976z M111.553,67.268l-0.18,0.954c-0.863-0.434-1.689-0.851-2.435-1.219
	C109.591,67.067,110.559,67.165,111.553,67.268z"/>
<path fill="#FFFFFF" d="M139.861,73.166c1.072-1.354-1.321-2.671-2.27-2.996c-1.254-0.429-2.638-0.521-3.941-0.718
	c-1.453-0.219-2.653-0.293-4.1-0.545c-0.247-0.101-2.065-0.197-2.406-0.229c-0.307-0.03,5.559,2.922,8.137,4.056
	C136.159,73.12,139.012,74.24,139.861,73.166z"/>
<path fill="#FFFFFF" d="M88.503,57.584c0.136,0.221,0.729,0.396,1.363,0.26c0.594-0.128,0.722-0.771,0.406-1.219
	c-0.155-0.22-0.755-0.547-0.785-0.564c0.157-0.177,0.638-0.733,0.723-0.831c0.207,0.045,1.409,0.058,1.705-0.165
	c0.125-0.094,0.165-0.275,0.14-0.421c-0.062-0.369-0.41-0.636-0.731-0.799c0.179-0.238,0.354-0.476,0.518-0.711
	c0.109,0.058,1.802,0.067,2.023-0.026c0.239-0.101,0.412-0.417,0.353-0.671c-0.093-0.395-1.13-0.913-1.31-0.971
	c0.675-1.182,1.156-2.306,1.467-3.367c0.486,0.045,1.114-0.122,1.422-0.429c0.207-0.206,0.206-0.473,0.04-0.703
	c-0.218-0.302-0.665-0.482-1.098-0.515c0.027-0.186,0.05-0.369,0.066-0.551c0.229-0.018,1.332-0.358,1.613-0.576
	c0.428-0.333,0.269-1.118-0.255-1.259c-0.344-0.092-1.244-0.003-1.35,0.013c-0.014-0.157-0.029-0.314-0.05-0.466
	c0.582-0.187,1.355-0.461,1.501-1.04c0.073-0.291-0.037-0.682-0.373-0.76c-0.31-0.072-1.302,0.131-1.499,0.182
	c-0.082-0.248-0.171-0.491-0.271-0.725c0.156-0.073,1.164-0.617,1.336-0.953c0.267-0.521,0.023-1.084-0.577-1.172
	c-0.341-0.049-1.423,0.426-1.633,0.53c-0.123-0.181-0.25-0.358-0.382-0.526c0.667-0.683,1.559-1.945,0.509-2.39
	c-0.503-0.213-1.62,0.874-1.785,1.043c-0.155-0.135-0.311-0.262-0.468-0.383c0.281-0.496,0.589-0.991,0.723-1.542
	c0.192-0.787-0.792-1.331-1.29-0.635c-0.298,0.416-0.579,0.852-0.805,1.314c-0.224-0.112-0.441-0.201-0.65-0.276
	c0.193-0.667,0.141-1.481-0.014-2.12c-0.111-0.457-0.585-0.556-0.94-0.313c-0.359,0.246-0.766,1.745-0.781,2.083
	c-0.126-0.014-0.251-0.019-0.376-0.028c0-0.071-0.316-1.496-0.621-2.072c-0.328-0.619-1.234-0.414-1.31,0.265
	c-0.069,0.619,0.006,1.241,0.086,1.856c-0.225,0.027-0.446,0.072-0.667,0.114c-0.116-0.243-0.605-1.369-0.8-1.662
	c-0.334-0.499-1.217-0.464-1.246,0.252c-0.023,0.583,0.159,1.266,0.446,1.846c-0.308,0.11-0.611,0.236-0.913,0.369
	c-0.132-0.31-1.119-1.588-1.567-1.727c-0.57-0.177-0.973,0.288-0.937,0.823c0.029,0.425,0.838,1.493,0.978,1.69
	c-0.427,0.251-0.846,0.524-1.26,0.814c-0.327-0.526-0.804-1.037-1.294-1.351c-0.633-0.405-1.352,0.278-1.056,0.94
	c0.144,0.322,0.857,1.259,1.002,1.439c-0.264,0.217-0.521,0.442-0.771,0.674c-0.161-0.221-1.191-1.239-1.623-1.231
	c-0.242,0.005-0.49,0.122-0.563,0.374c-0.124,0.431,0.063,0.808,0.298,1.162c0.212,0.319,0.425,0.631,0.707,0.886
	c-0.226,0.245-0.439,0.505-0.656,0.759c-0.211-0.163-0.462-0.276-0.742-0.317c-0.38-0.056-0.709,0.356-0.625,0.713
	c0.067,0.282,0.222,0.543,0.433,0.742c-2.417,3.088-4.442,6.581-7.298,9.24c-4.52,4.209-10.793,5.341-16.804,5.411
	c-0.264,0.003-3.597-0.223-3.363-0.115c1.772,0.82,13.533,3.397,16.193,3.742c3.839,0.498,6.556,1.152,10.433,1.03
	C80.946,62.331,85.199,60.783,88.503,57.584z M67.495,59.703l1.579-1.818c0.4-0.083,0.799-0.166,1.198-0.253l-0.591,2.157
	C68.949,59.771,68.219,59.743,67.495,59.703z M72.012,50.792c0.178-0.203,0.363-0.427,0.552-0.662l2.202,1.211
	c-0.209,0.312-0.435,0.615-0.672,0.911l-2.273-1.251C71.884,50.931,71.951,50.862,72.012,50.792z M76.895,44.455l1.484,1.696
	c-0.337,0.389-0.658,0.788-0.968,1.193l-1.474-1.684C76.248,45.257,76.567,44.854,76.895,44.455z M77.948,43.222l1.531,1.749
	c-0.256,0.257-0.506,0.519-0.75,0.789l-1.499-1.713C77.466,43.768,77.706,43.493,77.948,43.222z M79.22,41.889l1.325,2.086
	c-0.236,0.203-0.469,0.41-0.696,0.626l-1.547-1.767C78.602,42.509,78.908,42.193,79.22,41.889z M80.836,40.484l0.953,2.51
	c-0.299,0.183-0.58,0.399-0.849,0.633l-1.334-2.102C80.007,41.154,80.417,40.804,80.836,40.484z M82.946,39.183l0.382,3.134
	c-0.366,0.109-0.727,0.25-1.076,0.427l-0.979-2.578C81.815,39.782,82.373,39.451,82.946,39.183z M85.168,38.509l-0.524,3.564
	c-0.268,0.019-0.538,0.055-0.808,0.112l-0.391-3.216C84.006,38.747,84.581,38.59,85.168,38.509z M72.24,55.898l4.944-2.885
	c0.171,0.104,0.377,0.151,0.589,0.109c0.446-0.09,0.735-0.526,0.645-0.973c-0.005-0.026-0.022-0.045-0.029-0.069l2.053-1.717
	c0.23,0.176,0.529,0.259,0.835,0.197c0.563-0.114,0.926-0.662,0.812-1.226c-0.015-0.073-0.037-0.142-0.066-0.208l1.46-1.221
	c0.302,0.188,0.671,0.269,1.047,0.193c0.781-0.158,1.285-0.919,1.127-1.7c-0.028-0.138-0.08-0.264-0.143-0.382l1.562-1.819
	c0.058,0.063,0.118,0.118,0.174,0.189C90.561,48.589,81.094,54.326,72.24,55.898z M86.921,55.284l-1.779-2.897
	c0.269-0.179,0.533-0.369,0.793-0.566l2.01,2.451C87.615,54.632,87.273,54.971,86.921,55.284z M85.83,56.162
	c-0.119,0.085-0.242,0.163-0.364,0.244l-1.514-3.297c0.253-0.143,0.502-0.292,0.749-0.447l1.819,2.965
	C86.292,55.816,86.062,55.997,85.83,56.162z M83.821,57.371l-1.304-3.52c0.33-0.155,0.656-0.319,0.979-0.489l1.529,3.332
	C84.633,56.935,84.233,57.163,83.821,57.371z M82.113,58.121l-1.13-3.61c0.356-0.142,0.708-0.291,1.058-0.446l1.307,3.531
	C82.945,57.786,82.533,57.961,82.113,58.121z M80.443,58.678L79.694,55c0.269-0.096,0.537-0.194,0.804-0.295l1.126,3.6
	C81.236,58.441,80.842,58.563,80.443,58.678z M71.751,59.803l0.735-2.686c0.235-0.057,0.47-0.109,0.704-0.167l-0.223,2.821
	C72.562,59.786,72.157,59.798,71.751,59.803z M75.644,52.12c0.693-1.092,7.494-10.854,11.045-8.271l-1.504,1.75
	c-0.326-0.283-0.772-0.422-1.228-0.33c-0.78,0.158-1.285,0.919-1.127,1.7c0.044,0.219,0.14,0.413,0.266,0.581l-1.397,1.168
	c-0.23-0.176-0.529-0.259-0.835-0.197c-0.563,0.114-0.926,0.662-0.812,1.225c0.015,0.073,0.038,0.143,0.066,0.208l-2.028,1.695
	c-0.18-0.131-0.409-0.193-0.645-0.146c-0.446,0.09-0.735,0.525-0.645,0.972c0.01,0.047,0.037,0.084,0.054,0.127L73.67,54.46
	C74.475,53.659,75.204,52.813,75.644,52.12z M83.759,46.782c-0.054-0.268,0.119-0.528,0.386-0.582
	c0.267-0.054,0.528,0.119,0.582,0.386c0.054,0.268-0.119,0.528-0.386,0.582C84.074,47.222,83.813,47.049,83.759,46.782z
	 M80.67,49.66c-0.044-0.215,0.095-0.424,0.31-0.467c0.214-0.043,0.424,0.095,0.467,0.31s-0.095,0.424-0.31,0.467
	C80.922,50.013,80.713,49.875,80.67,49.66z M77.343,52.539c-0.011-0.015-0.022-0.029-0.033-0.042
	c-0.022-0.034-0.04-0.072-0.048-0.114c-0.039-0.192,0.086-0.379,0.277-0.418c0.192-0.039,0.379,0.085,0.418,0.277
	c0.039,0.192-0.086,0.379-0.277,0.418C77.549,52.687,77.424,52.634,77.343,52.539z M76.446,56.052l0.147,3.417
	c-0.408,0.055-0.818,0.102-1.231,0.142l-0.092-3.22C75.663,56.282,76.055,56.169,76.446,56.052z M76.96,55.893
	c0.269-0.082,0.538-0.164,0.806-0.25l0.342,3.585c-0.33,0.061-0.662,0.118-0.996,0.168L76.96,55.893z M78.623,59.127l-0.349-3.642
	c0.065-0.021,0.131-0.039,0.196-0.061c0.243-0.081,0.486-0.165,0.728-0.249l0.742,3.644C79.506,58.933,79.067,59.035,78.623,59.127z
	 M88.22,49.331c0.162-0.269,0.312-0.557,0.442-0.863l2.526,0.646c-0.184,0.473-0.393,0.941-0.627,1.4L88.22,49.331z M77.091,47.769
	c-0.232,0.314-0.456,0.631-0.672,0.949l-1.758-1.365c0.308-0.416,0.625-0.842,0.953-1.272L77.091,47.769z M76.129,49.154
	c-0.143,0.218-0.286,0.436-0.421,0.654l-2.036-1.12c0.22-0.295,0.446-0.601,0.678-0.915L76.129,49.154z M75.439,50.255
	c-0.089,0.148-0.181,0.296-0.266,0.442c-0.04,0.068-0.086,0.134-0.127,0.201l-2.153-1.185c0.151-0.195,0.305-0.395,0.463-0.605
	L75.439,50.255z M73.757,52.661c-0.25,0.292-0.507,0.574-0.772,0.846l-2.349-1.292c0.285-0.272,0.563-0.546,0.822-0.818
	L73.757,52.661z M72.601,53.892c-0.261,0.255-0.524,0.501-0.787,0.735c-0.004-0.018-0.011-0.031-0.021-0.034l-2.767-0.947
	c0.42-0.347,0.827-0.699,1.212-1.053L72.601,53.892z M71.381,55.002c-0.459,0.39-0.907,0.744-1.323,1.055l-2.874-0.984
	c0.467-0.339,0.923-0.687,1.365-1.041L71.381,55.002z M69.544,56.434c-0.417,0.298-0.777,0.539-1.067,0.726l-7.273,1.471
	c1.8-0.836,3.69-1.942,5.458-3.183L69.544,56.434z M67.485,57.892c0.005,0.164,0.316,0.259,0.604,0.201
	c0.047-0.009,0.093-0.02,0.139-0.029l-1.39,1.601c-1.975-0.122-3.903-0.306-5.713-0.486L67.485,57.892z M70.846,57.507
	c0.356-0.08,0.708-0.168,1.062-0.252l-0.698,2.551c-0.331,0.001-0.661-0.001-0.992-0.006L70.846,57.507z M73.724,56.81
	c0.344-0.089,0.687-0.185,1.03-0.279l0.089,3.127c-0.448,0.037-0.899,0.068-1.351,0.091L73.724,56.81z M88.298,53.88l-1.947-2.374
	c0.197-0.164,0.459-0.403,0.749-0.71l2.176,1.833C88.967,53.065,88.64,53.483,88.298,53.88z M89.573,52.199l-2.127-1.791
	c0.164-0.194,0.328-0.406,0.488-0.637l2.381,1.204C90.085,51.392,89.838,51.801,89.573,52.199z M91.372,48.623l-2.525-0.645
	c0.124-0.371,0.213-0.763,0.259-1.175l2.71,0.215C91.705,47.553,91.557,48.09,91.372,48.623z M91.91,46.502l-2.77-0.22
	c0.006-0.346-0.012-0.701-0.078-1.071l2.972-0.399C92.044,45.366,92,45.932,91.91,46.502z M92.007,44.29l-3.077,0.414
	c-0.07-0.231-0.155-0.447-0.258-0.647l3.064-1.198C91.873,43.322,91.966,43.799,92.007,44.29z M91.57,42.364l-3.175,1.242
	c-0.101-0.141-0.211-0.272-0.33-0.394l2.411-2.674C90.959,41.096,91.319,41.71,91.57,42.364z M90.117,40.156l-2.441,2.709
	c-0.207-0.156-0.43-0.289-0.668-0.399l1.231-3.648C88.986,39.201,89.606,39.653,90.117,40.156z M87.739,38.663l-1.218,3.615
	c-0.425-0.135-0.878-0.209-1.347-0.219l0.531-3.603C86.366,38.419,87.044,38.484,87.739,38.663z M60.217,59.068
	c0.001,0.007,0.001,0.014,0.002,0.021c-0.014-0.001-0.028-0.003-0.042-0.004C60.19,59.079,60.204,59.073,60.217,59.068z"/>
<g>
	<path fill="#FFFFFF" d="M30.886,78.106c0.005-0.006,0.012-0.01,0.017-0.017C30.955,78.026,30.943,78.039,30.886,78.106z"/>
	<path fill="#FFFFFF" d="M53.346,89.054c0.107,0.476,0.262,0.929,0.673,1.218c0.375,0.264,0.947,0.148,1.19-0.241
		c0.274-0.439,0.214-0.892,0.146-1.384c-0.034-0.247-0.076-0.509-0.146-0.758c0.255-0.045,0.509-0.094,0.761-0.153
		c0.058,0.201,0.123,0.399,0.196,0.595c0.135,0.364,0.236,0.752,0.529,1.024c0.444,0.411,1.107,0.314,1.343-0.272
		c0.224-0.56,0.048-1.336-0.115-1.951c0.068-0.027,0.138-0.047,0.206-0.074c0.002,0.003,0.002,0.006,0.004,0.009
		c0.121,0.235,0.293,0.437,0.428,0.663c0.151,0.252,0.299,0.498,0.475,0.734c0.435,0.585,1.369,0.172,1.416-0.484
		c0.044-0.626-0.175-1.299-0.523-1.834c0.055-0.034,0.111-0.064,0.166-0.098c0.247,0.227,0.464,0.389,0.67,0.581
		c0.296,0.275,0.561,0.565,0.897,0.794c0.761,0.516,1.53-0.344,1.235-1.099c-0.209-0.535-0.661-1.135-1.154-1.543
		c0.077-0.071,0.158-0.136,0.233-0.21c0.285,0.19,0.595,0.332,0.917,0.447c0.401,0.143,0.857,0.322,1.284,0.188
		c0.454-0.142,0.649-0.539,0.477-0.984c-0.16-0.414-0.571-0.679-0.904-0.945c-0.145-0.116-0.307-0.219-0.476-0.311
		c0.086-0.159,0.172-0.32,0.249-0.501c0.078,0.017,0.156,0.034,0.236,0.054c0.525,0.128,1.28,0.368,1.768,0.046
		c0.363-0.239,0.49-0.587,0.328-0.999c-0.219-0.556-0.928-0.768-1.453-0.93c-0.111-0.034-0.223-0.067-0.335-0.099
		c0.049-0.284,0.092-0.575,0.121-0.88c0.735,0.026,1.538-0.041,1.942-0.574c0.187-0.247,0.116-0.577-0.057-0.802
		c-0.303-0.396-0.818-0.416-1.277-0.463c-0.191-0.02-0.382-0.035-0.573-0.051c-0.02-0.394-0.06-0.799-0.116-1.211
		c0.293-0.077,0.584-0.183,0.828-0.319c0.489-0.271,0.948-0.829,0.512-1.37c-0.246-0.306-0.614-0.302-0.968-0.327
		c-0.258-0.019-0.529-0.022-0.796-0.017c-0.055-0.193-0.12-0.389-0.183-0.584c0.059-0.024,0.119-0.048,0.176-0.069
		c0.369-0.136,0.774-0.385,0.994-0.711c0.314-0.468-0.028-1.019-0.539-1.094c-0.347-0.052-0.691,0.081-1.025,0.163
		c-0.08,0.019-0.166,0.042-0.251,0.065c-0.183-0.399-0.392-0.798-0.617-1.195c0.309-0.241,0.575-0.556,0.725-0.815
		c0.253-0.435-0.083-1.13-0.651-0.967c-0.333,0.095-0.61,0.249-0.914,0.411c-0.009,0.005-0.016,0.009-0.024,0.014
		c-0.256-0.362-0.533-0.72-0.83-1.074c0.216-0.33,0.33-0.736,0.265-1.089c-0.057-0.306-0.405-0.573-0.72-0.478
		c-0.238,0.071-0.463,0.202-0.666,0.36c-2.09-2.05-4.977-3.858-8.893-5.107c-6.484-2.958-12.414-4.646-19.955-7.898
		c-7.54-3.252-12.332-6.102-18.675-11.034c-0.26-0.151,2.085,4.904,4.576,10.156c-0.333,0.047-0.658,0.157-0.868,0.286
		c-0.429,0.265-0.65,0.766-0.408,1.245c0.21,0.417,0.818,0.68,1.244,0.408c0.159-0.102,0.302-0.21,0.445-0.332
		c0.082-0.07,0.173-0.126,0.264-0.184c0.212,0.446,0.423,0.888,0.633,1.328c-0.05,0.013-0.102,0.026-0.149,0.04
		c-0.407,0.118-0.744,0.243-1.017,0.586c-0.506,0.638,0.208,1.528,0.931,1.383c0.366-0.073,0.648-0.348,0.908-0.6
		c0.151,0.316,0.3,0.626,0.447,0.931c-0.126,0.045-0.33,0.116-0.233,0.083c-0.308,0.106-0.591,0.256-0.896,0.373
		c-0.487,0.186-0.637,0.858-0.421,1.286c0.235,0.465,0.821,0.657,1.285,0.422c0.342-0.174,0.671-0.399,0.923-0.689
		c0.011-0.012,0.021-0.025,0.032-0.037c0.163,0.338,0.318,0.661,0.47,0.975c-0.453,0.09-0.851,0.321-1.232,0.596
		c-0.441,0.319-0.415,1.036-0.08,1.411c0.368,0.411,0.997,0.435,1.41,0.08c0.183-0.157,0.33-0.35,0.486-0.533
		c0.041-0.049,0.071-0.092,0.101-0.137c0.041,0.083,0.083,0.172,0.122,0.252c0.121,0.216,0.24,0.42,0.361,0.632
		c-0.139,0.036-0.277,0.09-0.415,0.143c-0.237,0.091-0.673,0.407-0.798,0.64c-0.154,0.285-0.205,0.588-0.052,0.89
		c0.161,0.318,0.6,0.593,0.966,0.469c0.329-0.112,0.793-0.425,1.07-0.798c0.172,0.294,0.343,0.573,0.515,0.859
		c-0.621,0.13-1.243,0.535-1.458,1.065c-0.254,0.624,0.392,1.367,1.046,1.191c0.416-0.111,0.623-0.343,0.911-0.629
		c0.101-0.099,0.207-0.201,0.305-0.309c0.181,0.292,0.361,0.569,0.542,0.852c-0.324,0.136-0.628,0.358-0.867,0.549
		c-0.405,0.321-0.406,0.972-0.076,1.341c0.335,0.375,0.967,0.435,1.341,0.076c0.169-0.162,0.371-0.328,0.551-0.512
		c0.203,0.304,0.404,0.595,0.606,0.889c-0.421,0.144-0.808,0.45-1.079,0.765c-0.607,0.707,0.448,1.897,1.221,1.374
		c0.295-0.2,0.602-0.462,0.817-0.773c0.238,0.332,0.475,0.652,0.712,0.969c-0.071,0.027-0.14,0.055-0.201,0.083
		c-0.281,0.13-0.54,0.244-0.793,0.429c-0.823,0.603,0.136,2.005,1.008,1.478c0.289-0.175,0.636-0.499,0.841-0.866
		c0.178,0.229,0.355,0.448,0.531,0.67c-0.135,0.076-0.26,0.172-0.384,0.268c-0.094,0.068-0.101,0.074-0.021,0.017
		c-0.099,0.062-0.194,0.128-0.284,0.202c0.129-0.084,0.077-0.049-0.156,0.108c-0.085,0.079-0.157,0.168-0.214,0.268
		c-0.442,0.707,0.155,1.622,0.986,1.466c0.465-0.087,0.934-0.497,1.181-0.981c0.211,0.249,0.421,0.49,0.631,0.728
		c-0.287,0.139-0.552,0.331-0.743,0.544c-0.347,0.387-0.453,0.928-0.077,1.35c0.433,0.484,1.101,0.366,1.488-0.087
		c-0.004,0.005-0.005,0.006-0.013,0.016c0.005-0.005,0.008-0.011,0.013-0.016c0.001-0.001,0.003-0.003,0.004-0.004
		c-0.001,0.001-0.002,0.002-0.003,0.003c0.069-0.071,0.133-0.146,0.188-0.228c0.065-0.091,0.121-0.19,0.183-0.283
		c0.018-0.028,0.035-0.059,0.053-0.089c0.261,0.279,0.517,0.534,0.775,0.797c-0.384,0.205-0.738,0.544-0.956,0.842
		c-0.248,0.339-0.189,0.842,0.082,1.146c0.361,0.403,0.92,0.386,1.327,0.075c0.264-0.201,0.526-0.563,0.683-0.942
		c0.199,0.19,0.395,0.363,0.593,0.544c-0.145,0.108-0.28,0.227-0.382,0.341c-0.366,0.407-0.741,0.786-0.629,1.381
		c0.085,0.45,0.546,0.747,0.99,0.658c0.516-0.104,0.698-0.492,0.976-0.878c0.089-0.123,0.192-0.261,0.287-0.406
		c0.168,0.143,0.334,0.272,0.501,0.408c-0.037,0.035-0.072,0.069-0.105,0.103c-0.31,0.317-0.695,0.63-0.834,1.061
		c-0.262,0.813,0.719,1.464,1.365,0.906c0.346-0.298,0.497-0.789,0.668-1.212c0.149,0.113,0.296,0.216,0.444,0.324
		c-0.126,0.15-0.234,0.321-0.336,0.463c-0.284,0.392-0.577,0.875-0.476,1.368c0.11,0.537,0.662,0.74,1.134,0.55
		c0.364-0.147,0.781-0.845,0.938-1.501c0.285,0.189,0.566,0.367,0.845,0.539c-0.105,0.078-0.206,0.165-0.302,0.253
		c-0.306,0.278-0.732,0.809-0.719,1.238c0.01,0.314,0.108,0.592,0.382,0.774c0.241,0.16,0.604,0.205,0.862,0.051
		c0.372-0.223,0.655-0.732,0.806-1.035c0.086-0.173,0.198-0.346,0.252-0.534c0.254,0.14,0.502,0.263,0.751,0.391
		c-0.104,0.127-0.196,0.263-0.269,0.388c-0.167,0.289-0.442,0.594-0.509,0.922c-0.082,0.401-0.015,0.792,0.353,1.036
		c0.362,0.241,0.759,0.16,1.091-0.078c0.315-0.226,0.46-0.659,0.617-0.999c0.077-0.167,0.152-0.36,0.197-0.558
		c0.234,0.103,0.463,0.197,0.691,0.291c-0.133,0.134-0.25,0.286-0.353,0.436c-0.228,0.335-0.496,0.866-0.49,1.28
		c0.012,0.827,0.971,1.158,1.483,0.504c0.221-0.281,0.339-0.732,0.449-1.073c0.071-0.223,0.152-0.439,0.188-0.662
		c0.201,0.071,0.392,0.128,0.589,0.192c-0.131,0.198-0.217,0.429-0.307,0.648c-0.147,0.362-0.256,0.761-0.309,1.147
		c-0.133,0.971,1.394,1.263,1.669,0.338c0.098-0.33,0.184-0.701,0.232-1.04c0.033-0.234,0.063-0.465,0.05-0.693
		c0.403,0.109,0.795,0.207,1.175,0.294c-0.142,0.148-0.25,0.34-0.326,0.54c-0.143,0.374-0.321,0.841-0.301,1.243
		c0.02,0.403,0.188,0.757,0.595,0.897c0.451,0.155,0.971-0.093,1.121-0.55c0.129-0.395,0.151-0.85,0.205-1.262
		c0.025-0.189,0.008-0.414-0.057-0.614c0.376,0.068,0.755,0.125,1.138,0.17c-0.014,0.205-0.016,0.411-0.006,0.612
		c0.022,0.465,0.002,0.928,0.208,1.357c0.25,0.519,1.126,0.639,1.419,0.084c0.222-0.423,0.25-0.84,0.294-1.307
		c0.019-0.197,0.033-0.407,0.035-0.617c0.356,0.004,0.713-0.004,1.068-0.022C53.186,88.436,53.277,88.747,53.346,89.054z
		 M49.446,84.889l0.774-3.125c0.365,0.081,0.727,0.143,1.083,0.183l0.211,3.034C50.813,84.987,50.117,84.954,49.446,84.889z
		 M45.524,78.242c-5.081-2.236-14.087-12.8-17.489-18.011l3.221,2.939c-0.035,0.121-0.051,0.247-0.024,0.379
		c0.088,0.437,0.513,0.718,0.949,0.63c0.091-0.018,0.17-0.059,0.246-0.104l2.228,1.71c-0.08,0.178-0.11,0.38-0.068,0.586
		c0.105,0.521,0.612,0.857,1.133,0.752c0.16-0.032,0.3-0.106,0.418-0.203l2.382,1.828c-0.087,0.211-0.114,0.449-0.066,0.69
		c0.131,0.647,0.761,1.066,1.409,0.935c0.146-0.03,0.278-0.088,0.398-0.163l2.691,1.407c-0.027,0.179-0.029,0.364,0.009,0.552
		c0.175,0.866,1.018,1.425,1.883,1.25c0.368-0.075,0.676-0.275,0.9-0.541l2.218,0.999c-0.155,0.355-0.209,0.757-0.126,1.165
		c0.214,1.056,1.242,1.738,2.296,1.525c0.56-0.113,1.009-0.46,1.281-0.914l3.495,1.574c-0.176,0.489-0.482,0.975-0.944,1.457
		C52.48,80.231,50.183,80.293,45.524,78.242z M24.817,53.625c0.377,0.221,0.762,0.429,1.145,0.642l0.247,3.049
		c-0.328-0.151-0.655-0.301-0.977-0.45l-1.391-3.822C24.176,53.245,24.505,53.442,24.817,53.625z M26.753,57.566l-0.241-2.992
		c0.389,0.211,0.783,0.414,1.176,0.617l0.235,2.907C27.531,57.92,27.137,57.742,26.753,57.566z M28.466,58.343l-0.231-2.87
		c0.49,0.248,0.983,0.489,1.478,0.728l0.227,2.807C29.438,58.784,28.957,58.565,28.466,58.343z M31.511,57.047l0.223,2.751
		c-0.419-0.184-0.838-0.368-1.25-0.551l-0.225-2.783C30.675,56.662,31.092,56.855,31.511,57.047z M33.741,58.051l0.219,2.716
		c-0.566-0.244-1.13-0.487-1.684-0.73l-0.221-2.741C32.616,57.551,33.178,57.803,33.741,58.051z M35.844,58.972l-0.264,2.491
		c-0.364-0.155-0.717-0.308-1.077-0.462l-0.218-2.709C34.804,58.519,35.324,58.746,35.844,58.972z M37.829,59.837l-0.261,2.461
		c-0.496-0.207-0.998-0.414-1.486-0.621l0.263-2.486C36.841,59.406,37.335,59.621,37.829,59.837z M39.801,60.708l-0.685,2.236
		c-0.354-0.146-0.695-0.291-1.045-0.436l0.26-2.452C38.823,60.271,39.312,60.49,39.801,60.708z M40.654,61.087
		c0.324,0.147,0.653,0.291,0.979,0.437l-0.665,2.171c-0.456-0.185-0.915-0.369-1.366-0.554l0.68-2.219
		C40.406,60.977,40.53,61.031,40.654,61.087z M46.899,63.867l-1.371,1.635c-0.298-0.115-0.587-0.231-0.883-0.346l1.028-1.846
		C46.083,63.493,46.491,63.68,46.899,63.867z M48.708,64.721l-1.266,1.51c-0.466-0.177-0.938-0.353-1.399-0.531l1.347-1.607
		C47.833,64.298,48.271,64.509,48.708,64.721z M50.461,65.606l-1.127,1.345c-0.048-0.018-0.096-0.039-0.144-0.057
		c-0.416-0.155-0.818-0.311-1.23-0.467l1.233-1.471C49.619,65.167,50.041,65.386,50.461,65.606z M52.35,66.65l-1.041,1.242
		c-0.493-0.278-0.986-0.524-1.469-0.733l1.094-1.305C51.412,66.11,51.883,66.378,52.35,66.65z M52.992,68.976
		c-0.401-0.294-0.811-0.566-1.226-0.818l1.043-1.245c0.566,0.339,1.122,0.692,1.666,1.061L52.992,68.976z M55.043,76.716
		l-3.427-1.544c0.079-0.286,0.102-0.592,0.039-0.903c-0.214-1.056-1.242-1.738-2.297-1.525c-0.461,0.093-0.844,0.348-1.119,0.687
		l-2.226-1.003c0.107-0.275,0.142-0.582,0.079-0.893c-0.175-0.866-1.018-1.425-1.883-1.25c-0.492,0.1-0.878,0.418-1.094,0.831
		l-2.473-1.294c0.152-0.248,0.217-0.551,0.154-0.859c-0.131-0.647-0.761-1.066-1.408-0.935c-0.222,0.045-0.413,0.151-0.568,0.294
		l-2.384-1.831c0.054-0.156,0.071-0.327,0.036-0.502c-0.105-0.521-0.612-0.858-1.133-0.752c-0.13,0.026-0.248,0.077-0.35,0.148
		l-2.228-1.711c0.054-0.139,0.083-0.288,0.052-0.445c-0.088-0.437-0.513-0.719-0.949-0.63c-0.116,0.023-0.219,0.073-0.309,0.138
		l-3.135-2.861c2.933,1.259,11.881,5.062,14.712,6.421C45.83,67.594,55.849,72.152,55.043,76.716z M49.877,75.31
		c-0.361,0.073-0.713-0.161-0.786-0.522c-0.073-0.361,0.161-0.714,0.522-0.787c0.361-0.073,0.714,0.161,0.787,0.522
		C50.472,74.885,50.238,75.237,49.877,75.31z M44.417,71.315c0.296-0.06,0.585,0.132,0.645,0.428s-0.132,0.586-0.428,0.645
		c-0.296,0.06-0.585-0.132-0.645-0.428C43.929,71.665,44.121,71.375,44.417,71.315z M39.701,69.695
		c-0.247,0.05-0.487-0.11-0.537-0.357c-0.05-0.247,0.11-0.487,0.356-0.537c0.246-0.05,0.487,0.109,0.537,0.356
		C40.107,69.404,39.947,69.645,39.701,69.695z M44.156,64.964c-0.417-0.164-0.837-0.327-1.249-0.491l1.067-1.916
		c0.407,0.179,0.813,0.36,1.221,0.541L44.156,64.964z M42.416,64.281c-0.325-0.13-0.639-0.259-0.961-0.389l0.659-2.153
		c0.458,0.203,0.918,0.406,1.378,0.608L42.416,64.281z M56.147,84.265l-1.285-2.936c0.236-0.141,0.46-0.308,0.673-0.501l2.326,2.655
		C57.333,83.799,56.755,84.057,56.147,84.265z M54.003,84.785l-0.509-2.922c0.313-0.069,0.615-0.167,0.904-0.295l1.25,2.854
		C55.115,84.578,54.565,84.698,54.003,84.785z M51.829,81.989c0.394,0.019,0.778,0.008,1.15-0.038l0.507,2.906
		c-0.48,0.059-0.964,0.095-1.448,0.112L51.829,81.989z M58.303,83.197l-2.401-2.741c0.065-0.073,0.131-0.143,0.193-0.222
		c0.147-0.189,0.28-0.378,0.404-0.567l3.126,2.304C59.247,82.443,58.801,82.849,58.303,83.197z M59.932,81.55l-3.163-2.331
		c0.104-0.186,0.199-0.372,0.282-0.558l3.521,1.611c-0.104,0.281-0.226,0.559-0.374,0.835C60.115,81.26,60.026,81.407,59.932,81.55z
		 M60.734,79.772l-3.492-1.597c0.102-0.291,0.177-0.581,0.232-0.869l3.495,0.569C60.982,78.51,60.909,79.145,60.734,79.772z
		 M60.937,77.341l-3.389-0.551c0.034-0.36,0.035-0.717,0.003-1.069l3.036-0.089C60.763,76.195,60.883,76.767,60.937,77.341z
		 M60.41,75.114L57.481,75.2c-0.066-0.372-0.165-0.738-0.295-1.098l2.549-0.453C59.995,74.127,60.224,74.617,60.41,75.114z
		 M59.46,73.167l-2.473,0.44c-0.209-0.471-0.468-0.929-0.767-1.371l2.327-0.414C58.876,72.255,59.182,72.705,59.46,73.167z
		 M58.181,71.357l-2.299,0.408c-0.254-0.335-0.528-0.66-0.821-0.972l1.866-0.811C57.363,70.412,57.785,70.871,58.181,71.357z
		 M56.519,69.591l-1.849,0.803c-0.391-0.383-0.807-0.745-1.239-1.084l1.507-1.017C55.467,68.674,55.999,69.11,56.519,69.591z
		 M23.126,52.607l1.341,3.685l-8.676-8.503c-0.023-0.038-0.049-0.082-0.072-0.119C17.773,49.203,20.639,51.084,23.126,52.607z
		 M16.821,49.531l7.882,7.724c0.044,0.087,0.093,0.182,0.145,0.282l-4.906-1.959C19.061,53.689,17.919,51.461,16.821,49.531z
		 M20.371,56.516c-0.035-0.08-0.077-0.168-0.114-0.25l4.981,1.988c0.253,0.451,0.556,0.973,0.912,1.557l-4.585-0.838
		C21.134,58.145,20.731,57.323,20.371,56.516z M21.876,59.562l4.641,0.846c0.26,0.418,0.542,0.862,0.843,1.325l-4.424-0.286
		C22.567,60.818,22.213,60.189,21.876,59.562z M23.255,61.992l4.465,0.287c0.305,0.461,0.628,0.938,0.968,1.428l-4.556-0.294
		C23.833,62.941,23.539,62.467,23.255,61.992z M24.481,63.959l4.588,0.295c0.294,0.417,0.601,0.843,0.916,1.273l-4.194,0.393
		C25.344,65.275,24.907,64.62,24.481,63.959z M26.131,66.414l4.216-0.397c0.34,0.457,0.69,0.918,1.052,1.381l-4.27,0.4
		C26.794,67.343,26.46,66.883,26.131,66.414z M27.492,68.29l4.292-0.404c0.206,0.261,0.416,0.521,0.629,0.782l-3.857,1.011
		C28.2,69.225,27.845,68.763,27.492,68.29z M28.91,70.126l3.867-1.014c0.254,0.307,0.512,0.613,0.774,0.918l-3.892,1.02
		C29.41,70.748,29.16,70.44,28.91,70.126z M30.026,71.494l3.909-1.025c0.209,0.239,0.42,0.477,0.634,0.713l-3.502,1.52
		C30.723,72.312,30.376,71.911,30.026,71.494z M31.448,73.133c-0.006-0.006-0.011-0.013-0.017-0.019l3.51-1.524
		c0.292,0.317,0.587,0.631,0.886,0.94l-3.533,1.533C32.01,73.754,31.727,73.444,31.448,73.133z M32.669,74.47l3.549-1.541
		c0.346,0.35,0.695,0.695,1.049,1.031l-3.214,1.968C33.585,75.447,33.124,74.96,32.669,74.47z M34.428,76.311l3.232-1.98
		c0.276,0.256,0.553,0.507,0.833,0.753l-2.663,2.596C35.356,77.233,34.888,76.776,34.428,76.311z M36.211,78.039l2.678-2.612
		c0.332,0.284,0.665,0.561,1.002,0.828l-2.715,2.647C36.851,78.619,36.529,78.332,36.211,78.039z M37.575,79.243l2.732-2.665
		c0.199,0.152,0.397,0.305,0.597,0.451c0.152,0.11,0.318,0.229,0.491,0.351l-2.782,2.712C38.262,79.817,37.917,79.532,37.575,79.243
		z M39.032,80.413l2.798-2.73c0.294,0.202,0.607,0.413,0.942,0.63l-2.346,3.103C39.953,81.097,39.489,80.761,39.032,80.413z
		 M40.865,81.703l2.349-3.107c0.485,0.306,1.005,0.617,1.546,0.922l-2.355,3.114C41.881,82.342,41.368,82.029,40.865,81.703z
		 M42.874,82.878l2.348-3.105c0.363,0.196,0.734,0.387,1.111,0.571l-1.61,3.401C44.091,83.483,43.475,83.193,42.874,82.878z
		 M45.507,84.055c-0.101-0.037-0.198-0.08-0.298-0.118l1.595-3.37c0.454,0.209,0.913,0.402,1.376,0.577l-1.543,3.259
		C46.229,84.297,45.85,84.18,45.507,84.055z M47.154,84.529l1.518-3.207c0.348,0.12,0.696,0.227,1.042,0.319l-0.792,3.191
		C48.302,84.755,47.707,84.652,47.154,84.529z"/>
</g>
<path fill="#FFFFFF" d="M88.837,83.047c0.438,0.043,0.884,0.082,1.34,0.117c0.001,0.009,0.149,0.673,0.409,1.224l1.767-0.357
	c-0.016-0.283-0.094-0.571-0.174-0.854c0.233-0.019,0.468-0.032,0.698-0.066c0.005,0.044,0.121,0.379,0.317,0.75l1.846-0.374
	c-0.067-0.311-0.177-0.615-0.269-0.846c0.144-0.05,0.293-0.089,0.435-0.145c0.021,0.049,0.339,0.474,0.657,0.824l1.505-0.304
	c0-0.462-0.242-0.977-0.503-1.358c0.14-0.088,0.282-0.171,0.417-0.265c0.003,0.004,1.258,1.286,1.722,1.293l0.376-0.076
	c0.365-0.147,0.614-0.49,0.526-0.936c-0.016-0.093-0.938-1.359-1.135-1.558c0.128-0.135,0.251-0.273,0.37-0.416
	c0.018,0.014,1.735,0.883,2.076,0.788c0.448-0.126,0.721-0.393,0.683-0.882c-0.041-0.521-1.413-1.473-1.66-1.571
	c0.075-0.148,0.341-0.75,0.39-0.902c0.606,0.048,1.433-0.021,1.859-0.43c0.289-0.276,0.361-0.775,0.061-1.079
	c-0.394-0.4-1.095-0.574-1.71-0.551c-0.032-0.339-0.09-0.676-0.176-1.009c0.6-0.192,1.315-0.421,1.651-0.937
	c0.27-0.415,0.072-0.96-0.384-1.131c-0.554-0.206-2.008,0.136-2.033,0.147c-0.107-0.198-0.216-0.394-0.335-0.586
	c0.525-0.274,1.015-0.675,1.238-1.176c0.219-0.491-0.226-0.944-0.675-1.017c-0.312-0.051-0.73,0.074-1.011,0.215
	c-0.241,0.121-0.494,0.232-0.733,0.359c-0.22-0.263-0.444-0.515-0.668-0.752c0.415-0.35,0.744-0.83,0.673-1.386
	c-0.03-0.232-0.267-0.424-0.494-0.433c-0.533-0.022-1.062,0.261-1.517,0.564c-2.675-2.211-5.815-3.179-9.258-3.981
	c-10.305-2.4-30.357-3.283-41.69-3.219c-0.583,0.004,5.961,1.782,8.196,2.409c-0.162,0.21-0.285,0.456-0.362,0.679
	c-0.342,0.998,1.203,1.523,1.545,0.529c0.074-0.215,0.163-0.512,0.185-0.796c0.667,0.213,1.434,0.477,2.227,0.779
	c-0.229,0.205-0.421,0.485-0.596,0.7c-0.372,0.459-0.05,1.178,0.46,1.352c0.568,0.195,1.128-0.216,1.191-0.791
	c0.021-0.192,0.115-0.495,0.143-0.782c0.361,0.152,0.721,0.309,1.071,0.473c-0.154,0.156-0.293,0.328-0.437,0.509
	c-0.681,0.859,0.883,1.898,1.411,0.937c0.14-0.255,0.269-0.498,0.358-0.762c0.425,0.239,0.816,0.486,1.166,0.739
	c-0.267,0.257-0.479,0.598-0.633,0.891c-0.221,0.42-0.182,0.925,0.244,1.208c0.381,0.253,0.964,0.164,1.207-0.244
	c0.151-0.254,0.295-0.525,0.396-0.807c0.348,0.334,0.687,0.675,1.024,1.018c-0.37,0.248-0.644,0.708-0.786,1.086
	c-0.338,0.895,1.054,1.609,1.517,0.748c0.125-0.232,0.247-0.488,0.33-0.751c0.293,0.298,0.591,0.592,0.892,0.885
	c-0.045,0.031-0.638,0.563-0.793,0.855c-0.209,0.392-0.168,0.868,0.229,1.131c0.358,0.238,0.902,0.153,1.131-0.229
	c0.156-0.259,0.378-0.865,0.382-0.881c0.176,0.158,0.997,0.862,1.233,1.056c-0.368,0.233-0.67,0.603-0.832,0.963
	c-0.355,0.789,0.814,1.552,1.404,0.932c0.208-0.219,0.543-0.867,0.584-0.954c0.215,0.173,0.434,0.345,0.652,0.518
	c-0.422,0.256-0.778,0.74-0.872,1.115c-0.095,0.379-0.004,0.767,0.338,0.994c0.374,0.248,0.953,0.163,1.19-0.241
	c0.187-0.318,0.288-0.569,0.458-0.942c0.006-0.014,0.011-0.03,0.017-0.044c0.301,0.232,0.611,0.457,0.916,0.685
	c-0.265,0.167-0.484,0.404-0.707,0.666c-0.269,0.316-0.101,0.845,0.213,1.053c0.323,0.214,0.854,0.151,1.053-0.213
	c0.15-0.274,0.298-0.535,0.371-0.812c0.283,0.205,0.569,0.404,0.855,0.605c-0.302,0.236-0.536,0.584-0.717,0.907
	c-0.225,0.402-0.169,0.904,0.237,1.173c0.363,0.241,0.948,0.166,1.173-0.237c0.165-0.294,0.373-0.677,0.455-1.054
	c0.461,0.31,0.928,0.606,1.394,0.901c-0.328,0.3-0.577,0.816-0.665,1.145c-0.204,0.753,0.788,1.297,1.246,0.614
	c0.173-0.258,0.411-0.699,0.484-1.107c0.409,0.244,0.818,0.493,1.23,0.721c-0.335,0.269-0.59,0.679-0.735,1.056
	c-0.18,0.467,0.113,1.007,0.571,1.164c0.476,0.163,0.998-0.101,1.164-0.571c0.108-0.306,0.26-0.625,0.317-0.952
	c0.317,0.153,0.631,0.299,0.943,0.435c-0.243,0.393-0.361,0.922-0.403,1.333c-0.042,0.409,0.24,0.804,0.62,0.934
	c0.44,0.151,1.051-0.085,1.168-0.573c0.061-0.26,0.174-0.985,0.186-1.087c0.553,0.189,1.104,0.361,1.657,0.502
	c-0.257,0.447-0.41,1.001-0.489,1.49c-0.17,1.068,1.564,1.404,1.847,0.373c0.134-0.486,0.172-1.043,0.066-1.552
	c0.462,0.088,0.926,0.168,1.4,0.235c-0.107,0.355,0.112,1.842,0.456,2.148l0.977-0.198C88.801,84.348,88.884,83.289,88.837,83.047z
	 M88.836,80.652c-0.511-0.041-1.002-0.114-1.467-0.211l0.314-3.275c0.274,0.059,0.542,0.104,0.805,0.139L88.836,80.652z
	 M88.332,72.578c-0.391,0.079-0.713,0.31-0.917,0.619l-2.01-0.836c0.012-0.106,0.013-0.215-0.009-0.326
	c-0.114-0.563-0.662-0.927-1.225-0.813c-0.269,0.054-0.49,0.21-0.638,0.417l-1.91-0.794c0-0.055,0.011-0.109,0-0.166
	c-0.09-0.447-0.526-0.735-0.972-0.645c-0.142,0.029-0.26,0.101-0.364,0.19L78.543,69.5c0.01-0.071,0.015-0.144,0-0.218
	c-0.071-0.352-0.414-0.58-0.766-0.508c-0.113,0.023-0.206,0.081-0.287,0.15l-3.875-1.609c6.317,1.16,16.898,3.74,17.788,5.783
	c0.311,0.714,0.337,1.316,0.162,1.796l-1.531-0.637c0.033-0.177,0.035-0.364-0.003-0.551C89.873,72.925,89.113,72.42,88.332,72.578z
	 M89.102,73.894c0.054,0.268-0.119,0.528-0.386,0.582c-0.267,0.054-0.528-0.119-0.582-0.386c-0.054-0.268,0.119-0.528,0.386-0.582
	C88.787,73.453,89.048,73.626,89.102,73.894z M84.753,72.203c0.044,0.215-0.096,0.424-0.31,0.467
	c-0.214,0.043-0.424-0.095-0.467-0.31c-0.044-0.215,0.096-0.424,0.31-0.467C84.5,71.85,84.709,71.988,84.753,72.203z M81.161,70.773
	c0.039,0.192-0.086,0.379-0.277,0.418c-0.191,0.039-0.379-0.085-0.418-0.277c-0.039-0.192,0.086-0.379,0.277-0.418
	C80.935,70.457,81.123,70.581,81.161,70.773z M77.27,69.395c-0.001,0.048-0.01,0.095,0,0.144c0.071,0.352,0.414,0.579,0.765,0.508
	c0.086-0.017,0.164-0.052,0.233-0.098l1.739,0.724c-0.023,0.107-0.026,0.22-0.003,0.334c0.091,0.447,0.526,0.736,0.972,0.646
	c0.203-0.041,0.366-0.159,0.483-0.311l1.888,0.785c-0.012,0.105-0.012,0.212,0.01,0.321c0.114,0.563,0.662,0.927,1.225,0.813
	c0.267-0.054,0.487-0.208,0.635-0.413l1.995,0.829c-0.043,0.192-0.05,0.396-0.008,0.601c0.158,0.781,0.919,1.286,1.699,1.128
	c0.409-0.083,0.739-0.334,0.941-0.664l1.469,0.61c-0.528,0.674-1.574,0.972-2.747,0.825c-1.093,0.023-6.67-2.744-8.44-3.783
	c-2.047-1.201-4.528-3.127-6.712-4.6L77.27,69.395z M89.363,80.682l-0.346-3.323c0.318,0.022,0.624,0.02,0.918-0.001l1.051,3.284
	C90.439,80.689,89.895,80.702,89.363,80.682z M91.515,80.586l-1.053-3.293c0.26-0.046,0.509-0.112,0.744-0.201l2.18,3.097
	C92.78,80.374,92.149,80.504,91.515,80.586z M93.901,80.015l-2.217-3.15c0.323-0.181,0.616-0.413,0.874-0.702l3.559,2.63
	C95.467,79.315,94.712,79.718,93.901,80.015z M96.649,78.323c-0.042,0.042-0.089,0.079-0.132,0.119l-3.64-2.691
	c0.115-0.173,0.22-0.361,0.315-0.565l4.458,1.461C97.482,77.241,97.162,77.808,96.649,78.323z M97.755,76.133l-4.385-1.437
	c0.031-0.127,0.055-0.254,0.062-0.38l3.988-0.606C97.725,74.52,97.861,75.344,97.755,76.133z M96.334,71.705
	c0.342,0.483,0.642,0.991,0.881,1.509l-3.817,0.58c-0.06-0.307-0.191-0.606-0.38-0.899L96.334,71.705z M96.007,71.268l-3.32,1.19
	c-0.144-0.166-0.307-0.33-0.489-0.492l2.886-1.747C95.408,70.546,95.718,70.899,96.007,71.268z M94.697,69.844l-2.924,1.77
	c-0.182-0.139-0.376-0.276-0.582-0.41l2.122-2.459C93.771,69.048,94.241,69.42,94.697,69.844z M92.759,68.408
	c0.034,0.019,0.069,0.04,0.104,0.06l-2.121,2.457c-0.265-0.157-0.547-0.311-0.842-0.463l1.559-2.684
	C91.903,67.972,92.339,68.178,92.759,68.408z M90.969,67.583l-1.538,2.649c-0.262-0.125-0.533-0.248-0.812-0.368l1.108-2.739
	C90.149,67.262,90.561,67.419,90.969,67.583z M88.122,66.661c0.372,0.095,0.737,0.204,1.102,0.314l-1.086,2.686
	c-0.302-0.123-0.612-0.244-0.93-0.361L88.122,66.661z M87.612,66.542l-0.893,2.581c-0.342-0.121-0.69-0.239-1.044-0.354l0.856-2.472
	C86.894,66.371,87.252,66.456,87.612,66.542z M86.013,66.199l-0.835,2.412c-0.32-0.1-0.644-0.197-0.971-0.291l0.799-2.308
	C85.343,66.069,85.677,66.135,86.013,66.199z M84.483,65.929l-0.778,2.248c-0.302-0.084-0.606-0.166-0.911-0.246l0.597-2.174
	C83.754,65.811,84.118,65.871,84.483,65.929z M82.87,65.686l-0.582,2.117c-0.335-0.084-0.671-0.165-1.007-0.244l0.555-2.017
	C82.177,65.588,82.523,65.638,82.87,65.686z M80.368,65.346c0.31,0.042,0.629,0.084,0.945,0.127l-0.541,1.97
	c-0.323-0.073-0.646-0.143-0.967-0.211l0.52-1.892C80.339,65.342,80.354,65.344,80.368,65.346z M79.803,65.271l-0.51,1.856
	c-0.258-0.052-0.515-0.103-0.77-0.152l0.244-1.842C79.112,65.179,79.457,65.224,79.803,65.271z M77.2,64.925
	c0.35,0.045,0.7,0.093,1.05,0.139l-0.24,1.814c-0.308-0.056-0.61-0.109-0.91-0.159L77.2,64.925z M75.492,64.715
	c0.396,0.049,0.792,0.095,1.188,0.146l-0.097,1.774c-0.407-0.065-0.802-0.124-1.187-0.178L75.492,64.715z M74.124,64.548
	c0.283,0.033,0.566,0.07,0.849,0.104l-0.095,1.736c-0.292-0.038-0.575-0.072-0.849-0.103L74.124,64.548z M72.566,64.381
	c0.346,0.037,0.693,0.07,1.039,0.109l-0.096,1.741c-0.368-0.037-0.716-0.066-1.041-0.087L72.566,64.381z M71.31,64.249
	c0.246,0.024,0.491,0.052,0.737,0.077l-0.098,1.788c-0.268-0.012-0.515-0.018-0.74-0.017L71.31,64.249z M72.355,67.093
	c-0.001,0.003-0.001,0.005-0.002,0.009c-0.006-0.004-0.013-0.009-0.019-0.012C72.341,67.09,72.348,67.091,72.355,67.093z
	 M70.79,64.195l-0.105,1.919c-0.137,0.009-0.261,0.021-0.37,0.037l-1.352-2.104C69.572,64.095,70.183,64.138,70.79,64.195z
	 M60.788,63.217c2.2,0.256,4.401,0.565,6.59,0.705c0.312,0.02,0.621,0.051,0.932,0.074l1.302,2.025L60.788,63.217z M65.989,67.073
	c-0.158-0.13-0.318-0.255-0.475-0.385c-1.316-1.086-2.623-1.982-4.004-2.695l7.665,2.435L65.989,67.073z M66.515,67.498l3.624-0.733
	c0.024,0.009,0.047,0.021,0.075,0.025c0.013,0.002,0.136,0.099,0.351,0.27l-2.426,1.746C67.596,68.376,67.055,67.937,66.515,67.498z
	 M68.568,69.14l2.421-1.742c0.186,0.148,0.402,0.319,0.646,0.511l-1.908,2.135C69.339,69.745,68.953,69.443,68.568,69.14z
	 M71.059,71.063c-0.306-0.232-0.615-0.463-0.92-0.697l1.908-2.135c0.195,0.152,0.403,0.313,0.623,0.481L71.059,71.063z
	 M71.476,71.378l1.609-2.349c0.277,0.21,0.57,0.43,0.876,0.658l-1.611,2.352C72.057,71.82,71.767,71.598,71.476,71.378z
	 M73.856,73.152c-0.363-0.267-0.728-0.533-1.089-0.8l1.614-2.355c0.35,0.257,0.717,0.521,1.096,0.791L73.856,73.152z M75.34,74.239
	c-0.099-0.071-0.2-0.144-0.296-0.213c-0.258-0.187-0.51-0.376-0.767-0.564l1.626-2.373c0.312,0.219,0.632,0.44,0.959,0.663
	L75.34,74.239z M75.765,74.543l1.529-2.5c0.346,0.231,0.697,0.462,1.053,0.692l-1.411,2.624C76.53,75.083,76.14,74.81,75.765,74.543
	z M78.595,76.45c-0.419-0.266-0.827-0.532-1.224-0.797l1.417-2.635c0.24,0.152,0.482,0.303,0.726,0.452L78.595,76.45z
	 M80.045,77.334c-0.336-0.196-0.668-0.395-0.993-0.597l0.921-2.989c0.33,0.199,0.664,0.393,0.998,0.584L80.045,77.334z
	 M81.59,78.195c-0.364-0.192-0.725-0.389-1.082-0.592l0.927-3.009c0.362,0.2,0.724,0.394,1.086,0.58L81.59,78.195z M83.293,79.033
	c-0.414-0.188-0.825-0.385-1.233-0.593l0.933-3.028c0.415,0.206,0.828,0.399,1.237,0.58L83.293,79.033z M85.088,79.77
	c-0.439-0.16-0.879-0.332-1.316-0.521l0.94-3.049c0.361,0.15,0.717,0.29,1.069,0.415L85.088,79.77z M85.583,79.944l0.694-3.16
	c0.302,0.098,0.6,0.185,0.893,0.26l-0.314,3.277C86.434,80.214,86.009,80.088,85.583,79.944z"/>
<path fill="#FFFFFF" d="M62.206,86.472c-0.031-0.055-0.486,0.198-0.456,0.254l1.751,3.143l0.537-0.109L62.206,86.472z"/>
<path fill="#FFFFFF" d="M59.813,87.445c-0.013-0.062-0.523,0.043-0.511,0.105l0.627,3.042l0.511-0.103L59.813,87.445z"/>
</svg>
